<?xml version="1.0" encoding="utf-8"?>
<!-- Generator: Adobe Illustrator 18.0.0, SVG Export Plug-In . SVG Version: 6.00 Build 0)  -->
<!DOCTYPE svg PUBLIC "-//W3C//DTD SVG 1.1//EN" "http://www.w3.org/Graphics/SVG/1.1/DTD/svg11.dtd">
<svg version="1.1" id="Camada_1" xmlns="http://www.w3.org/2000/svg" xmlns:xlink="http://www.w3.org/1999/xlink" x="0px" y="0px"
	 viewBox="0 0 138 23" enable-background="new 0 0 138 23" xml:space="preserve">
<g>
	<g>
		<path fill="#929497" d="M81.5,5.9h0.4V5.7c0-1.3-0.6-1.9-1.8-1.9c-0.6,0-1.2,0.2-1.8,0.5c-0.2,0.1-0.4,0.1-0.5-0.1l-0.1-0.1
			c-0.1-0.2-0.1-0.4,0.1-0.5c0.7-0.4,1.5-0.6,2.3-0.6c1.7,0,2.7,1,2.7,2.8V10c0,0.2-0.1,0.4-0.3,0.4h-0.2c-0.2,0-0.4-0.1-0.4-0.4
			V9.4l0-0.5h0c0,0-0.6,1.7-2.4,1.7c-0.7,0-1.2-0.2-1.7-0.6C77.3,9.6,77,9.1,77,8.4C77,6.7,78.5,5.9,81.5,5.9z M79.7,9.7
			c0.7,0,1.2-0.3,1.6-0.8c0.4-0.6,0.6-1.2,0.6-1.9V6.6h-0.4c-0.2,0-0.5,0-0.7,0c-0.4,0-1.1,0.1-1.5,0.2c-0.7,0.2-1.3,0.6-1.3,1.4
			C78.1,9,78.6,9.7,79.7,9.7z"/>
		<path fill="#929497" d="M84.7,0.6c0-0.2,0.1-0.4,0.3-0.4h0.3c0.2,0,0.4,0.1,0.4,0.4v3.2l-0.1,0.6h0c0-0.1,0.1-0.2,0.3-0.5
			c0.4-0.5,1.1-0.9,2.2-1c1,0,1.7,0.3,2.3,1.1c0.6,0.7,0.9,1.6,0.9,2.7c0,1.1-0.3,2.1-0.9,2.8c-0.6,0.7-1.4,1-2.3,1
			c-1.4,0-2.1-0.9-2.3-1.4L85.6,9h0c0,0.1,0.1,0.3,0.1,0.5V10c0,0.2-0.1,0.3-0.4,0.3h-0.2c-0.2,0-0.3-0.1-0.3-0.4V0.6z M86.3,8.8
			c0.4,0.6,1,0.8,1.7,0.8c0.7,0,1.2-0.3,1.7-0.8c0.4-0.5,0.7-1.2,0.7-2.1c0-1.7-1-2.9-2.3-2.9c-1.3,0-2.3,1-2.3,2.9
			C85.7,7.5,85.9,8.2,86.3,8.8z"/>
		<path fill="#929497" d="M92.8,3.5c0-0.2,0.1-0.4,0.4-0.4h0.3c0.2,0,0.3,0.1,0.3,0.4v1L93.7,5h0c0.4-1.1,1.2-2,2.3-2
			c0.2,0,0.4,0.1,0.4,0.3v0.3C96.4,3.9,96.3,4,96,4c-0.7,0-1.3,0.3-1.7,1c-0.4,0.7-0.6,1.4-0.6,2.3V10c0,0.2-0.1,0.4-0.3,0.4h-0.3
			c-0.2,0-0.4-0.1-0.4-0.4V3.5z"/>
		<path fill="#929497" d="M97.7,1.4c-0.2,0-0.3-0.1-0.3-0.3V0.6c0-0.2,0.1-0.4,0.3-0.4H98c0.2,0,0.3,0.1,0.3,0.4v0.5
			c0,0.2-0.1,0.3-0.3,0.3H97.7z M97.4,3.5c0-0.2,0.1-0.4,0.4-0.4H98c0.2,0,0.3,0.1,0.3,0.4V10c0,0.2-0.1,0.4-0.3,0.4h-0.3
			c-0.2,0-0.4-0.1-0.4-0.4V3.5z"/>
		<path fill="#929497" d="M100.3,3.5c0-0.2,0.1-0.4,0.4-0.4h0.3c0.2,0,0.3,0.1,0.3,0.4v0.8l-0.1,0.5h0c0.2-0.4,0.5-0.9,1-1.3
			c0.5-0.4,1.1-0.6,1.9-0.6c1.7,0,2.4,0.9,2.4,2.8V10c0,0.2-0.1,0.4-0.4,0.4h-0.3c-0.2,0-0.3-0.1-0.3-0.4V6c0-1.4-0.3-2.1-1.6-2.1
			c-0.8,0-1.4,0.3-2,0.8c-0.5,0.6-0.8,1.3-0.8,2.1V10c0,0.2-0.1,0.4-0.3,0.4h-0.3c-0.2,0-0.4-0.1-0.4-0.4V3.5z"/>
		<path fill="#929497" d="M113.5,4.2l0.1,0.1h0c0-0.2,0-0.3,0-0.5V0.6c0-0.2,0.1-0.4,0.4-0.4h0.3c0.2,0,0.3,0.1,0.3,0.4V10
			c0,0.2-0.1,0.4-0.3,0.4H114c-0.2,0-0.4-0.1-0.4-0.3V9.4l0.1-0.4h0c0,0.1-0.1,0.2-0.3,0.5c-0.3,0.5-1,0.9-2.2,1
			c-1,0-1.7-0.3-2.3-1.1c-0.6-0.7-0.8-1.6-0.8-2.7c0-1.1,0.3-2,0.9-2.7c0.6-0.7,1.4-1.1,2.3-1.1C112.6,2.9,113.3,3.9,113.5,4.2z
			 M113.6,6.7c0-0.8-0.2-1.5-0.6-2c-0.4-0.6-1-0.8-1.7-0.8c-0.7,0-1.2,0.3-1.7,0.8c-0.4,0.5-0.7,1.2-0.7,2.1c0,1.8,0.9,2.9,2.3,2.9
			C112.6,9.6,113.6,8.7,113.6,6.7z"/>
		<path fill="#929497" d="M117.1,4c0.7-0.7,1.7-1.1,2.7-1.1c1.1,0,2,0.4,2.7,1.1c0.7,0.7,1.1,1.6,1.1,2.7c0,1.1-0.4,2-1.1,2.7
			c-0.7,0.7-1.6,1.1-2.7,1.1c-1.1,0-2-0.4-2.7-1.1c-0.7-0.7-1.1-1.7-1.1-2.7C116,5.6,116.4,4.7,117.1,4z M117.8,8.8
			c0.5,0.6,1.2,0.8,2,0.8c0.8,0,1.4-0.3,2-0.8c0.5-0.6,0.8-1.3,0.8-2.1c0-0.8-0.3-1.5-0.8-2c-0.5-0.6-1.2-0.8-2-0.8
			c-0.8,0-1.5,0.3-2,0.8c-0.5,0.5-0.8,1.2-0.8,2C117,7.5,117.3,8.2,117.8,8.8z"/>
	</g>
	<g>
		<linearGradient id="SVGID_1_" gradientUnits="userSpaceOnUse" x1="68.1124" y1="15.3094" x2="74.1985" y2="21.3954">
			<stop  offset="0" style="stop-color:#F8AE95"/>
			<stop  offset="1.585604e-002" style="stop-color:#F8A991"/>
			<stop  offset="0.2175" style="stop-color:#F36D63"/>
			<stop  offset="0.389" style="stop-color:#EF4141"/>
			<stop  offset="0.5219" style="stop-color:#ED262C"/>
			<stop  offset="0.6" style="stop-color:#EC1C24"/>
		</linearGradient>
		<path fill="url(#SVGID_1_)" d="M68,15.4c0.8-0.8,1.9-1.2,3.2-1.2c1,0,1.8,0.2,2.5,0.7c0.4,0.3,0.5,0.7,0.2,1.1l-0.3,0.4
			c-0.3,0.4-0.6,0.5-1.1,0.2c-0.4-0.2-0.8-0.3-1.2-0.3c-1.2,0-1.9,0.9-1.9,1.9c0,1,0.7,1.9,2,1.9c0.5,0,0.9-0.2,1.4-0.4
			c0.5-0.3,0.9-0.2,1.1,0.3l0.2,0.4c0.2,0.5,0.2,0.9-0.2,1.1c-0.8,0.5-1.8,0.8-2.8,0.8c-1.3,0-2.4-0.4-3.2-1.2
			c-0.8-0.8-1.2-1.8-1.2-2.9C66.8,17.2,67.2,16.2,68,15.4z"/>
		<linearGradient id="SVGID_2_" gradientUnits="userSpaceOnUse" x1="75.3408" y1="15.3823" x2="81.9425" y2="21.984">
			<stop  offset="0" style="stop-color:#C4DEF4"/>
			<stop  offset="9.989692e-002" style="stop-color:#A1D2F0"/>
			<stop  offset="0.2669" style="stop-color:#6CC1E9"/>
			<stop  offset="0.4119" style="stop-color:#46B4E4"/>
			<stop  offset="0.5278" style="stop-color:#2FACE1"/>
			<stop  offset="0.6" style="stop-color:#26A9E0"/>
		</linearGradient>
		<path fill="url(#SVGID_2_)" d="M76.3,17.9c0.9-0.4,1.9-0.5,2.9-0.5h0.2v-0.1c0-0.6-0.4-0.9-1.1-0.9c-0.4,0-0.9,0.1-1.4,0.3
			c-0.5,0.2-0.9,0.1-1.1-0.4L75.6,16c-0.2-0.5-0.1-0.9,0.3-1.1c0.9-0.4,1.8-0.6,2.6-0.6c2.2,0,3.5,1.2,3.5,3.2v4
			c0,0.6-0.3,0.8-0.8,0.8h-0.7c-0.6,0-0.8-0.3-0.8-0.9v-0.1l0-0.2h0c0,0.1-0.1,0.1-0.4,0.4c-0.4,0.4-1,0.8-1.9,0.8
			c-0.7,0-1.4-0.2-1.8-0.7c-0.5-0.5-0.7-1-0.7-1.7C74.8,19,75.4,18.3,76.3,17.9z M78.2,20.5c0.4,0,0.7-0.2,0.9-0.4
			c0.3-0.3,0.4-0.6,0.4-0.9v-0.2h-0.2c-1,0-1.8,0.3-1.8,0.9C77.4,20.2,77.7,20.5,78.2,20.5z"/>
		<linearGradient id="SVGID_3_" gradientUnits="userSpaceOnUse" x1="84.3214" y1="13.7306" x2="93.8881" y2="23.2972">
			<stop  offset="0" style="stop-color:#B9C9E7"/>
			<stop  offset="8.433664e-002" style="stop-color:#9CBADF"/>
			<stop  offset="0.26" style="stop-color:#659CD0"/>
			<stop  offset="0.4115" style="stop-color:#3D87C4"/>
			<stop  offset="0.5311" style="stop-color:#247ABE"/>
			<stop  offset="0.6041" style="stop-color:#1B75BB"/>
		</linearGradient>
		<path fill="url(#SVGID_3_)" d="M83.2,15.2c0-0.6,0.3-0.8,0.8-0.8h0.9c0.5,0,0.8,0.3,0.8,0.8v0.1l0,0.2h0c0.6-0.9,1.4-1.4,2.3-1.4
			c1.1,0,1.8,0.4,2.2,1.3h0c0.4-0.7,1.4-1.3,2.5-1.3c1.5,0,2.5,0.9,2.5,2.9v4.2c0,0.6-0.3,0.8-0.8,0.8h-1c-0.6,0-0.8-0.3-0.8-0.8
			v-3.8c0-0.7-0.2-1-0.6-1c-1.1,0-1.5,1-1.5,2.3v2.5c0,0.6-0.3,0.8-0.8,0.8h-1c-0.6,0-0.8-0.3-0.8-0.8v-3.8c0-0.7-0.2-1-0.6-1
			c-1.1,0-1.5,1-1.5,2.3v2.5c0,0.6-0.3,0.8-0.8,0.8h-1c-0.6,0-0.8-0.3-0.8-0.8V15.2z"/>
		<linearGradient id="SVGID_4_" gradientUnits="userSpaceOnUse" x1="94.667" y1="13.6493" x2="100.9894" y2="19.9717">
			<stop  offset="0" style="stop-color:#FFE3BE"/>
			<stop  offset="0.1547" style="stop-color:#FDCF8D"/>
			<stop  offset="0.3094" style="stop-color:#FBBE63"/>
			<stop  offset="0.4308" style="stop-color:#FAB34A"/>
			<stop  offset="0.5034" style="stop-color:#FAAF40"/>
		</linearGradient>
		<path fill="url(#SVGID_4_)" d="M96.5,15.2c0-0.6,0.3-0.8,0.8-0.8h1c0.6,0,0.8,0.3,0.8,0.8v6.2c0,0.6-0.3,0.8-0.8,0.8h-1
			c-0.6,0-0.8-0.3-0.8-0.8V15.2z M97.4,13.4c-0.6,0-0.8-0.3-0.8-0.8v-0.4c0-0.6,0.3-0.8,0.8-0.8h0.9c0.6,0,0.8,0.3,0.8,0.8v0.4
			c0,0.6-0.3,0.8-0.8,0.8H97.4z"/>
		<linearGradient id="SVGID_5_" gradientUnits="userSpaceOnUse" x1="100.3925" y1="14.8155" x2="107.8128" y2="22.2358">
			<stop  offset="0" style="stop-color:#FABA88"/>
			<stop  offset="0.1131" style="stop-color:#F9B06E"/>
			<stop  offset="0.3289" style="stop-color:#F7A043"/>
			<stop  offset="0.4971" style="stop-color:#F69628"/>
			<stop  offset="0.596" style="stop-color:#F6921E"/>
		</linearGradient>
		<path fill="url(#SVGID_5_)" d="M100.4,15.2c0-0.6,0.3-0.8,0.8-0.8h0.9c0.5,0,0.8,0.3,0.8,0.8v0.1l0,0.2h0c0.5-0.9,1.4-1.4,2.5-1.4
			c1.9,0,2.8,1,2.8,2.9v4.2c0,0.6-0.3,0.8-0.8,0.8h-1c-0.6,0-0.8-0.3-0.8-0.8v-3.8c0-0.7-0.3-1-0.9-1c-1.1,0-1.7,0.9-1.7,2.1v2.7
			c0,0.6-0.3,0.8-0.8,0.8h-1c-0.6,0-0.8-0.3-0.8-0.8V15.2z"/>
		<linearGradient id="SVGID_6_" gradientUnits="userSpaceOnUse" x1="107.8688" y1="13.2951" x2="116.8094" y2="22.2358">
			<stop  offset="0" style="stop-color:#FBC8AD"/>
			<stop  offset="1.473051e-003" style="stop-color:#FBC8AD"/>
			<stop  offset="0.2041" style="stop-color:#F69974"/>
			<stop  offset="0.3779" style="stop-color:#F3774B"/>
			<stop  offset="0.5143" style="stop-color:#F16231"/>
			<stop  offset="0.5966" style="stop-color:#F05A28"/>
		</linearGradient>
		<path fill="url(#SVGID_6_)" d="M109.4,12.2c0-0.6,0.3-0.8,0.8-0.8h1c0.6,0,0.8,0.3,0.8,0.8v2.6l0,0.7h0c0.4-0.8,1.4-1.2,2.4-1.2
			c1.9,0,2.8,1,2.8,2.9v4.2c0,0.6-0.3,0.8-0.8,0.8h-1c-0.6,0-0.8-0.3-0.8-0.8v-3.8c0-0.7-0.3-1-0.9-1c-1.1,0-1.7,0.8-1.7,2.1v2.7
			c0,0.6-0.3,0.8-0.8,0.8h-1c-0.6,0-0.8-0.3-0.8-0.8V12.2z"/>
		<linearGradient id="SVGID_7_" gradientUnits="userSpaceOnUse" x1="119.3065" y1="15.2686" x2="125.4383" y2="21.4004">
			<stop  offset="0" style="stop-color:#DBEBC3"/>
			<stop  offset="6.052900e-002" style="stop-color:#D1E6B3"/>
			<stop  offset="0.317" style="stop-color:#ACD475"/>
			<stop  offset="0.5048" style="stop-color:#94C94E"/>
			<stop  offset="0.6026" style="stop-color:#8BC53F"/>
		</linearGradient>
		<path fill="url(#SVGID_7_)" d="M125.5,15.4c0.9,0.8,1.3,1.7,1.3,3c0,1.2-0.4,2.2-1.3,2.9c-0.9,0.7-1.9,1.1-3.2,1.1
			c-1.3,0-2.3-0.4-3.2-1.1c-0.9-0.8-1.3-1.7-1.3-2.9c0-1.2,0.4-2.2,1.3-3c0.9-0.8,1.9-1.2,3.2-1.2C123.6,14.2,124.7,14.6,125.5,15.4
			z M122.4,20.2c1,0,1.8-0.7,1.8-1.9c0-1.2-0.8-1.9-1.8-1.9c-1,0-1.8,0.8-1.8,1.9C120.6,19.5,121.4,20.2,122.4,20.2z"/>
		<linearGradient id="SVGID_8_" gradientUnits="userSpaceOnUse" x1="127.9605" y1="15.5281" x2="133.5676" y2="21.1353">
			<stop  offset="0" style="stop-color:#BAD3B8"/>
			<stop  offset="0.1461" style="stop-color:#80BF94"/>
			<stop  offset="0.2996" style="stop-color:#49AC72"/>
			<stop  offset="0.4323" style="stop-color:#219E5A"/>
			<stop  offset="0.5374" style="stop-color:#09964B"/>
			<stop  offset="0.6018" style="stop-color:#009345"/>
		</linearGradient>
		<path fill="url(#SVGID_8_)" d="M127.8,20.5l0.2-0.3c0.3-0.4,0.7-0.5,1.2-0.2c0.6,0.3,1.1,0.4,1.5,0.4c0.5,0,0.7-0.2,0.7-0.4
			c0-0.3-0.6-0.5-1.3-0.7c-1-0.3-2.4-0.9-2.4-2.5c0-0.8,0.3-1.4,0.9-1.8c0.6-0.4,1.4-0.7,2.3-0.7c0.8,0,1.5,0.2,2.2,0.5
			c0.5,0.2,0.6,0.6,0.3,1.1l-0.2,0.4c-0.2,0.4-0.6,0.6-1.1,0.4c-0.5-0.2-1-0.3-1.3-0.3c-0.5,0-0.7,0.1-0.7,0.4
			c0,0.9,3.7,0.5,3.7,3.2c0,0.7-0.3,1.4-0.9,1.9c-0.6,0.5-1.4,0.7-2.3,0.7c-0.9,0-1.8-0.2-2.6-0.7C127.6,21.4,127.5,21,127.8,20.5z"
			/>
	</g>
</g>
<g>
	<g>
		<path fill="#FFE992" d="M16.4,14.8c0-0.2-0.3-0.2-0.3,0c0,0.1,0,0.2,0,0.3c0,0,0,0,0,0c0,0-0.1,0-0.2,0c-0.1-0.1-0.2,0-0.2,0.1
			c0,0.1,0,0.2,0,0.3c0-0.1-0.1-0.2-0.1-0.3c0-0.2-0.3-0.1-0.3,0c0,0.1,0,0.2,0,0.3c0-0.1-0.1-0.1-0.2-0.1c0,0,0,0,0,0
			c0-0.1-0.1-0.1-0.2-0.1c0-0.2-0.3-0.2-0.3,0c0,0,0,0.1,0,0.1c0,0-0.1,0-0.1,0c0,0,0-0.1,0-0.1c0-0.1-0.1-0.1-0.2-0.1
			c0-0.2-0.3-0.2-0.3,0c0,0.3,0,0.6,0,0.9c0,0,0,0,0,0c0-0.1,0-0.2,0-0.3c0-0.2-0.3-0.2-0.3,0c0,0.1,0,0.1,0,0.2
			c0,0-0.1,0.1-0.1,0.1c0,0.2,0,0.3,0,0.5c0-0.1,0-0.2-0.1-0.3c0-0.2-0.3-0.1-0.3,0c0,0,0,0,0,0c-0.1,0-0.2,0-0.2,0.2
			c0,0,0,0.1,0,0.1c-0.1-0.1-0.2,0-0.2,0.1c0,0.1,0,0.1,0,0.2c0,0,0,0,0-0.1c0-0.2-0.3-0.2-0.3,0c0,0.1-0.1,0.3-0.1,0.4
			c0,0,0-0.1,0-0.1c0-0.2-0.3-0.2-0.3,0c-0.1-0.1-0.2-0.1-0.3,0c0,0,0,0.1,0,0.1c0-0.1-0.1-0.1-0.1-0.1c-0.1-0.1-0.2-0.1-0.2,0
			c0,0-0.1,0.1-0.1,0.1c0,0,0-0.1,0-0.1c0-0.1,0-0.1-0.1-0.1c0-0.2-0.3-0.2-0.3,0c0,0.1-0.1,0.2-0.1,0.4c0,0-0.1,0-0.1,0
			c0,0,0,0,0,0c0-0.1-0.2-0.2-0.3-0.1c0,0.1-0.1,0.1-0.1,0.2c-0.1,0-0.1,0-0.1,0.1c0,0.2-0.1,0.3-0.1,0.5c0,0.2,0.2,0.3,0.3,0.1
			c0,0,0,0,0,0c0,0.1,0,0.2,0,0.3c0,0.1,0.1,0.1,0.1,0.2c0,0.1,0,0.1,0,0.2c0,0.1,0.1,0.2,0.2,0.2c0,0,0.1,0.1,0.1,0
			c0,0.1,0,0.2,0,0.3c0,0.1,0.1,0.2,0.2,0.2c0,0,0,0,0,0.1c0,0.2,0.3,0.2,0.3,0c0-0.1,0.1-0.3,0.1-0.4c0,0,0,0,0,0
			c0,0.2,0.3,0.2,0.3,0c0-0.3,0.1-0.5,0.1-0.8c0,0.1,0,0.1,0,0.2c0,0.2,0.2,0.2,0.3,0.1c0.1,0.1,0.2,0.1,0.3-0.1
			c0-0.2,0.1-0.4,0.1-0.5c0,0.1,0,0.2,0,0.4c0,0.2,0.3,0.2,0.3,0c0-0.1,0.1-0.2,0.1-0.3c0,0.2,0,0.4,0,0.7c0,0.2,0.3,0.2,0.3,0
			c0-0.3,0.1-0.5,0.1-0.8c0,0.2,0,0.4,0,0.7c0,0.2,0.3,0.2,0.3,0c0-0.2,0-0.3,0-0.5c0,0.1,0,0.3,0.1,0.4c0,0.2,0.3,0.1,0.3,0
			c0-0.2,0-0.3,0-0.5c0,0,0.1-0.1,0.1-0.1c0,0,0-0.1,0-0.1c0,0.1,0.1,0.3,0.1,0.4c0,0.2,0.3,0.1,0.3,0c0-0.1,0-0.2,0-0.3
			c0,0,0.1-0.1,0.1-0.1c0-0.1,0-0.3,0-0.4c0,0,0.1,0,0.1-0.1c0.1,0.1,0.3,0,0.3-0.1c0,0,0-0.1,0-0.1c0.1,0,0.2,0,0.2-0.2
			c0,0,0-0.1,0-0.1c0,0,0,0,0.1,0c0,0,0,0.1,0,0.1c0,0.1,0.2,0.2,0.3,0.1c0,0.2,0.3,0.1,0.3-0.1c0-0.1,0-0.1,0-0.2c0,0,0,0,0.1,0
			c0,0,0,0,0,0c0,0.2,0.3,0.1,0.3,0c0-0.1,0-0.2,0-0.3c0,0,0,0.1,0,0.1c0,0.2,0.3,0.1,0.3,0c0-0.2,0-0.5,0-0.7c0,0,0-0.1,0-0.1
			C16.4,15.5,16.4,15.2,16.4,14.8z"/>
		<g>
			<path fill="#FAAF40" d="M18.6,17c0,0,0-0.1,0.1-0.1c0-0.1,0-0.1,0-0.2c0,0,0,0,0-0.1c0-0.1,0-0.1-0.1-0.2c0-0.1,0.1-0.1,0.1-0.2
				c0.1-0.1,0-0.3-0.2-0.2c-0.1,0-0.2,0.1-0.2,0.1c0,0,0.1-0.1,0.1-0.1c0.1-0.2-0.2-0.3-0.3-0.2c-0.2,0.2-0.3,0.5-0.5,0.7
				c-0.1,0.1,0.1,0.3,0.2,0.2c0,0,0.1,0,0.1,0c-0.1,0.1-0.1,0.3-0.1,0.4c0,0.1,0.1,0.2,0.1,0.2c0,0,0,0.1-0.1,0.1c0,0.1,0,0.1,0,0.2
				c0,0,0,0,0,0c-0.1,0.1,0,0.3,0.2,0.3c0,0.1,0.2,0.2,0.3,0.1c0,0,0,0,0-0.1c0.1,0,0.2,0,0.2-0.1c0.1-0.1,0.1-0.3,0.1-0.4
				c0,0,0-0.1,0-0.1c0,0,0-0.1,0.1-0.1C18.7,17.2,18.6,17.1,18.6,17z"/>
			<path fill="#FAAF40" d="M13,21.4C13,21.4,13,21.4,13,21.4c0-0.2-0.2-0.3-0.3-0.2c0,0,0,0,0,0c0-0.2-0.3-0.2-0.3,0c0,0,0,0,0,0
				c-0.1,0-0.2,0-0.2,0.1c0,0,0,0.1,0,0.1c-0.1-0.1-0.2-0.1-0.2,0c0,0,0,0.1-0.1,0.1c-0.1,0-0.2,0-0.2,0.1c0,0,0,0,0,0c0,0,0,0,0,0
				c0,0,0,0,0,0c0,0.3-0.1,0.5-0.1,0.8c0,0.2,0.3,0.2,0.3,0c0,0,0-0.1,0-0.1c0,0,0,0,0,0c0,0.1,0.1,0.1,0.2,0.1c0.1,0,0.1,0,0.2-0.1
				c0.1,0,0.1,0,0.2-0.1c0.1-0.1,0.1-0.2,0.2-0.3c0,0,0,0.1,0,0.1c0,0.2,0.2,0.2,0.3,0c0.1-0.2,0.1-0.4,0.1-0.6
				C13,21.5,13,21.5,13,21.4z"/>
		</g>
		<path fill="#FAAF40" d="M13.8,14.9C13.8,14.9,13.8,14.9,13.8,14.9c0-0.2-0.1-0.3-0.2-0.2c-0.1-0.1-0.2-0.1-0.2,0c0,0,0-0.1,0-0.1
			c0-0.1-0.1-0.2-0.2-0.2c0-0.1-0.2-0.2-0.3-0.1c0-0.1,0-0.1,0-0.2c0-0.1-0.1-0.1-0.1-0.2c0-0.1-0.2-0.1-0.3,0
			c-0.1,0.2-0.1,0.3-0.2,0.5c0.1-0.2,0.1-0.4,0.2-0.7c0-0.2-0.2-0.3-0.3-0.1c-0.1,0.1-0.1,0.2-0.2,0.3c0-0.2,0-0.3,0.1-0.5
			c0-0.1-0.1-0.2-0.2-0.2c0,0,0,0,0,0c0-0.1-0.2-0.2-0.3,0c-0.2,0.4-0.3,0.7-0.3,1.1c-0.1-0.1-0.1-0.1-0.2,0c0,0-0.1,0.1-0.1,0.1
			c0-0.1-0.1-0.1-0.2-0.1c0,0,0,0,0-0.1c0-0.1-0.1-0.2-0.2-0.2c0,0,0,0,0,0c0-0.2-0.2-0.3-0.3-0.1c-0.1,0.1-0.1,0.2-0.2,0.3
			c0,0-0.1,0-0.1,0c-0.1,0-0.1,0.1-0.2,0.1c0-0.1,0-0.1,0-0.2c0-0.1-0.1-0.2-0.2-0.1c0,0,0-0.1,0-0.1c0-0.1-0.1-0.2-0.2-0.2
			c0-0.1,0-0.1,0-0.2c0-0.1-0.1-0.1-0.1-0.2c-0.1,0-0.2,0-0.2,0.1c0,0.1-0.1,0.1,0,0.2c0,0.2,0,0.4-0.1,0.7c0,0.1,0.1,0.1,0.1,0.2
			c0,0.1,0,0.2,0,0.3c0,0.1,0.1,0.2,0.2,0.2c0,0.1,0,0.2,0,0.3c0,0,0,0,0,0c-0.1,0.2-0.1,0.5-0.2,0.7c0,0.2,0.2,0.3,0.3,0.1
			c0,0,0-0.1,0.1-0.1c0,0.2-0.1,0.3-0.1,0.5c0,0.1,0,0.1,0.1,0.1c0,0.2-0.1,0.4-0.1,0.6c0,0.2,0.2,0.3,0.3,0.1
			c0-0.1,0.1-0.1,0.1-0.2c0,0,0.1,0.1,0.1,0.1c0.1,0,0.2,0,0.2,0c0,0.2,0.2,0.3,0.3,0.1c0-0.1,0.1-0.1,0.1-0.2c0,0,0.1,0,0.1,0
			c0,0.1,0.2,0.2,0.3,0.1c0.1-0.1,0.1-0.2,0.1-0.3c0.1,0,0.1,0,0.2-0.1c0,0.1,0,0.1,0,0.2c0,0.2,0.2,0.3,0.3,0.1
			c0-0.1,0.1-0.2,0.1-0.3c0,0,0,0,0,0c-0.1,0.2,0.2,0.3,0.3,0.1c0,0,0,0,0,0c0,0.1,0.2,0.1,0.3,0c0,0,0-0.1,0-0.1
			c0,0.1,0.2,0.2,0.3,0c0.1-0.3,0.2-0.5,0.3-0.8c0,0.1,0,0.2-0.1,0.4c0,0.2,0.2,0.3,0.3,0.1c0.1-0.1,0.1-0.3,0.2-0.4
			c0,0.1,0,0.1,0,0.2c0,0.2,0.3,0.2,0.3,0c0,0,0-0.1,0-0.1c0,0,0.1,0,0.1-0.1c0,0,0,0,0,0c0,0.2,0.3,0.3,0.3,0.1
			c0.1-0.4,0.2-0.8,0.3-1.2C14,15,13.9,14.9,13.8,14.9z M10.8,15.1C10.8,15.1,10.8,15.1,10.8,15.1C10.8,15.1,10.8,15.1,10.8,15.1
			C10.8,15.1,10.8,15.1,10.8,15.1z M10,15C10,15,10,15,10,15C10,15,10,15,10,15C10,15,10,15,10,15z M11.4,15.3
			C11.4,15.3,11.4,15.2,11.4,15.3c0-0.1,0-0.2,0-0.2c0,0,0,0,0,0c0,0,0-0.1,0-0.1c0-0.1,0.1-0.1,0.1-0.2c0,0.1,0,0.2,0,0.3
			c-0.1,0.1-0.1,0.3-0.2,0.4C11.4,15.4,11.4,15.3,11.4,15.3z"/>
		<g>
			<path fill="#FFFFFF" d="M13.4,2.7c0.1,0,0.2-0.1,0.2-0.1c0.7-0.6,1.5-0.7,2.4-0.4c0.2,0.1,0.4,0.1,0.6,0.1c0.7,0.1,1.3,0,1.8-0.5
				c0.2-0.2,0.4-0.3,0.3-0.6c0,0-0.1,0-0.1,0c-0.1,0.1-0.2,0.1-0.3,0.2C17.8,2.1,17,2.2,16.2,2c-0.3-0.1-0.6-0.1-0.9-0.2
				c-0.4-0.1-0.7,0-1.1,0.1C13.8,2,13.5,2.3,13.4,2.7C13.3,2.7,13.3,2.7,13.4,2.7C13.3,2.7,13.3,2.7,13.4,2.7
				C13.3,2.7,13.4,2.7,13.4,2.7z"/>
			<path fill="#FFFFFF" d="M7.3,10.4L7.3,10.4c0,0.5,0.2,0.9,0.5,1.3c0.5,0.5,1.1,0.8,1.8,0.8c1.3,0.2,2.3-0.3,3-1.3
				c0.3-0.4,0.3-0.8,0.3-1.2c0-0.1-0.1-0.1-0.1-0.2c0,0-0.1,0-0.1,0c-0.1,0.2-0.1,0.4-0.2,0.6c-0.1,0.3-0.2,0.6-0.3,0.8
				c-0.4,0.6-1,0.9-1.7,1c-0.9,0.1-1.7-0.1-2.4-0.6C7.7,11.2,7.5,10.8,7.3,10.4z"/>
			<path fill="#FFFFFF" d="M12.6,21.1c-0.1,0-0.2,0.1-0.3,0.1c-0.4,0.1-0.7,0.3-0.9,0.6c-0.1,0.2-0.2,0.4-0.1,0.6
				c0.1,0.3,0.5,0.5,0.8,0.4c0.5-0.1,0.8-0.5,1-1c-0.1,0-0.2,0.1-0.3,0.1c-0.2,0.1-0.3,0.3-0.5,0.4c-0.2,0.1-0.4,0.2-0.6,0.1
				c-0.1-0.4,0-0.7,0.4-0.8c0.2-0.1,0.5-0.1,0.7-0.1c0.1,0,0.2,0,0.3,0c-0.5-0.7-0.9-1.3-1.3-2C11.8,20.1,12.3,20.5,12.6,21.1z"/>
			<path fill="#FFFFFF" d="M18.9,3.3c-0.1,0-0.1,0.1-0.2,0.1c-0.8,0.4-1.2,0.4-1.8-0.2c0,0,0,0,0,0c-0.6-0.5-1.3-0.8-2.1-0.7
				c-0.4,0.1-0.7,0.3-0.9,0.7C14,3.1,14.1,3.1,14.2,3c0.4-0.3,0.9-0.4,1.3-0.2c0.4,0.2,0.8,0.4,1.1,0.6c0.3,0.1,0.5,0.3,0.8,0.4
				C18,4,18.6,3.9,18.9,3.3z"/>
			<path fill="#FFFFFF" d="M13.3,13.2c0.2,0.1,0.4,0.1,0.5,0.1c0.5-0.1,1-0.2,1.5-0.4c0.6-0.3,1.2-0.7,1.5-1.3
				c0.1-0.2,0.1-0.4,0.1-0.6c-0.1,0.1-0.2,0.2-0.3,0.3c-0.6,0.9-1.4,1.4-2.4,1.6C13.9,13,13.6,13.1,13.3,13.2z"/>
			<path fill="#FFFFFF" d="M17.5,0.3c0,0-0.1,0-0.1-0.1c-0.1,0.1-0.2,0.2-0.3,0.3C17,0.7,16.9,0.9,16.8,1c-0.3,0.3-0.7,0.2-1,0.2
				c-0.4,0-0.8-0.1-1.2,0c-0.5,0-0.8,0.3-1,0.7c0.1-0.1,0.1-0.1,0.2-0.1c0.2-0.1,0.4-0.3,0.7-0.3c0.4,0,0.8,0,1.2,0
				c0.3,0,0.5,0,0.8,0.1c0.3,0,0.6-0.1,0.8-0.4C17.4,0.9,17.6,0.6,17.5,0.3z"/>
			<path fill="#FFFFFF" d="M8.1,13.9c-0.7,0-1.3-0.1-1.9-0.3c-0.7-0.2-1.1-0.7-1.5-1.3c0,0.5,0.2,0.9,0.6,1.2
				C6.2,14.1,7.2,14.1,8.1,13.9z"/>
			<path fill="#FFFFFF" d="M9.6,3.4C8.6,3.5,8.1,4.3,8,5c0,0.4,0.2,0.8,0.6,0.9C8.4,5.5,8.3,5,8.5,4.5C8.7,4,9.1,3.7,9.6,3.4z"/>
			<path fill="#FFFFFF" d="M11.5,3.9c-0.4,0-0.6,0.2-0.7,0.5c-0.2,0.5-0.1,1,0.2,1.4C11.3,6,11.6,6.1,12,5.9
				c-0.3-0.3-0.7-0.5-0.8-0.9C11.1,4.6,11.3,4.2,11.5,3.9z"/>
			<path fill="#FFFFFF" d="M9.3,6.1c-0.1-0.5-0.2-1-0.1-1.5c0.1-0.5,0.5-0.8,0.9-1C9.4,3.7,9,4.1,8.8,4.8C8.7,5.3,8.9,5.7,9.3,6.1z"
				/>
			<path fill="#FFFFFF" d="M10.6,5.8C10,5,10,4.3,10.9,3.7c-0.4-0.1-0.7,0-0.9,0.4c-0.3,0.6-0.3,1.2,0.2,1.7
				C10.3,5.8,10.4,5.8,10.6,5.8z"/>
			<path fill="#FFFFFF" d="M12.2,4.2C11.9,4.6,12,5,12.6,5.6c0.4,0.1,0.4,0.1,0.6-0.1c-0.2-0.1-0.3-0.2-0.5-0.3
				c-0.4-0.3-0.5-0.7-0.3-1C12.4,4.2,12.3,4.2,12.2,4.2z"/>
			<path fill="#FFFFFF" d="M18,9.8c-0.5,0.1-0.7,0.5-0.9,0.9c0.1,0,0.2,0,0.3,0C17.7,10.4,18,10.2,18,9.8z"/>
			<path fill="#FFFFFF" d="M7.7,8.4C7.3,8.2,7.2,8.2,7,8.6c0.1,0.1,0.1,0.2,0.2,0.3c0.2,0,0.4,0.1,0.5-0.1C7.7,8.6,7.7,8.5,7.7,8.4z
				"/>
			<path fill="#FFFFFF" d="M10.2,9.4c-0.7,0-1,0.1-0.9,0.5c0.2-0.1,0.3-0.2,0.5-0.2c0.2,0,0.4,0.1,0.6,0.1
				C10.5,9.5,10.3,9.5,10.2,9.4z"/>
			<path fill="#FFFFFF" d="M4.4,12.1c-0.1-0.3-0.4-0.7-0.6-0.8c-0.1,0-0.2,0-0.3,0C3.7,11.8,4,12,4.4,12.1z"/>
			<path fill="#FFFFFF" d="M4.7,12c0-0.4-0.1-0.7-0.2-1c0,0-0.1,0-0.1-0.1C4.3,11.3,4.4,11.7,4.7,12z"/>
			<path fill="#FFFFFF" d="M16.9,10.5c0.4-0.3,0.5-0.7,0.4-1.1C17,9.7,16.8,10,16.9,10.5z"/>
			<path fill="#FFFFFF" d="M17.3,11.2c0.4,0,0.8-0.3,0.8-0.6C17.8,10.6,17.4,10.8,17.3,11.2z"/>
			<path fill="#FFFFFF" d="M12.7,8.1c-0.2-0.3-0.2-0.3-0.6-0.2c-0.1,0.3-0.1,0.4,0.2,0.5C12.5,8.3,12.6,8.2,12.7,8.1z"/>
			<path fill="#FFFFFF" d="M4.2,12.5c-0.1-0.4-0.4-0.5-0.7-0.4C3.6,12.4,3.9,12.5,4.2,12.5z"/>
			<path d="M11.4,3.5c0.7,0,1.3,0.3,1.9,0.5c0.2-0.3,0.2-0.5,0-0.7c-0.3-0.3-0.6-0.3-1.1,0c-0.1-0.2,0-0.3,0.2-0.4
				c0.3-0.2,0.8-0.1,1.1,0.2c0.1,0.1,0.2,0.2,0.3,0.4c0,0.2-0.1,0.5-0.1,0.8c1.4,0.8,2.4,2,2.4,3.8c0.2,0,0.3,0,0.5,0
				C16.9,8.2,17,8.4,17,8.6c0,0.2-0.2,0.4-0.4,0.4c-0.1,0.1-0.3,0.1-0.4-0.2c0.2-0.1,0.3-0.2,0.5-0.3c-0.2-0.2-0.2-0.2-0.5-0.1
				c-0.3,2.4-1.8,3.9-4,4.8c0.4,0.5,0.7,1,1.3,1.3c0.1,0,0.2,0.1,0.3,0.1c0.5,0.2,0.5,0.2,0.6,0.7c0.5,0,0.9,0.1,1.4-0.1
				c0.3-0.1,0.4-0.4,0.6-0.6c0.1-0.2,0.3-0.4,0.5-0.4c0.2,0.2,0.2,0.4,0.1,0.6c-0.2,0.4-0.3,0.8-0.3,1.2c0,0.1,0,0.2,0,0.4
				c0.6-0.2,1.2-0.2,1.5-0.8c0.3,0,0.2,0.2,0.2,0.3c0.6,0.3,0.9,1.4,0.5,2c-0.3,0.4-0.8,0.5-1.1,0.1c-0.1-0.1-0.1-0.2-0.1-0.3
				c0-0.3,0-0.7,0.1-1c0-0.1,0.1-0.2,0.1-0.3c-0.4,0.1-0.8,0.1-1.1,0.2c-0.1,0.3-0.3,0.6-0.6,0.7c-0.2,0.1-0.5,0.2-0.7,0.2
				c-0.4,0.1-0.6,0.3-0.7,0.7c0,0.2-0.1,0.4-0.2,0.6c-0.2,0.3-0.5,0.5-0.8,0.4c-0.3,0-0.5-0.1-0.8-0.2c-0.4-0.1-0.8,0-1,0.3
				c-0.1,0.1-0.1,0.2-0.2,0.3c-0.3,0.3-0.5,0.3-0.8,0c-0.3-0.3-0.4-0.7-0.5-1.1c0-0.3-0.1-0.6-0.1-0.8c-0.2-0.1-0.5-0.2-0.7-0.4
				C9.1,17.1,9,16.9,9,16.6c0-0.4-0.1-0.8-0.1-1.2c0-0.6,0-1.2,0-1.9C6.6,13,5,11.6,4.7,9.2C4.3,7,5.3,5.3,7.3,4.2
				c0.1,0,0.2,0,0.2,0C7.8,4,8,3.8,8.2,3.7c0,0,0,0,0,0.1C8.2,3.9,8,4,7.9,4.1c-0.3,0.3-0.4,0.6-0.4,1c0,0.2,0,0.5-0.2,0.7
				C7,5.6,7.1,5.3,7.2,5.1c0-0.2,0.2-0.5,0.2-0.8C7.2,4.4,7,4.5,6.9,4.6C6,5.3,5.4,6.2,5.1,7.3C4.9,8,4.8,8.7,5,9.4
				c0.3,1.6,1.3,2.7,2.8,3.4c1,0.5,2.1,0.6,3.2,0.4c1.5-0.3,2.9-1,3.9-2.3c0.8-1,1.1-2.1,0.9-3.4c-0.2-1-0.7-1.8-1.3-2.5
				C14.3,5,14.2,5,14.1,4.9c-0.4,0.2-0.7,0.3-1.2,0c0-0.1-0.1-0.3-0.1-0.4c0,0,0,0,0.1,0c0.1,0.1,0.2,0.2,0.3,0.3c0.2,0,0.4,0,0.7,0
				c-0.1-0.1-0.1-0.2-0.2-0.2c-0.6-0.5-1.4-0.8-2.1-1C11.5,3.6,11.4,3.5,11.4,3.5L11.4,3.5z M16.4,15.2c-0.1,0-0.1,0-0.1,0
				c-0.2,0.2-0.5,0.4-0.9,0.4c-0.4,0-0.8,0-1.2-0.1c-0.1,0.1-0.1,0.2-0.2,0.4c0.2,0.3,0.6,0.1,0.9,0.2c-0.4,0.2-0.8,0.1-1.1,0.1
				c-0.1,0.1-0.2,0.2-0.3,0.3c0.1,0.1,0.2,0.2,0.3,0.2c-0.1,0-0.2,0-0.3,0c-0.2,0-0.3,0-0.5,0.1c-0.6,0.3-1.2,0.6-1.8,0.6
				c-0.3,0-0.5,0.1-0.8,0.2c0.1,0.7,0.4,1.3,0.8,1.9c0.1-0.1,0.2-0.1,0.3-0.2c0.2-0.2,0.3-0.4,0.5-0.5c0.3-0.2,0.5-0.4,0.9-0.2
				c0.2,0.1,0.3,0.1,0.5,0.2c0.3,0.1,0.6,0,0.8-0.3c0.1-0.3,0.3-0.5,0.4-0.8c0.1-0.3,0.3-0.4,0.6-0.5c0.2-0.1,0.4-0.1,0.7-0.2
				c0.4-0.1,0.6-0.4,0.7-0.7C16.3,15.9,16.3,15.5,16.4,15.2C16.4,15.2,16.4,15.1,16.4,15.2C16.4,15.1,16.4,15.2,16.4,15.2z
				 M10.5,13.9c-0.2,0.2-0.3,0.4-0.5,0.6c-0.5-0.2-0.5-0.7-0.9-1C9.1,13.7,9,13.8,9,13.9c0.1,0.5,0.1,1.1,0.2,1.6
				c0,0.3,0.1,0.6,0.1,0.9c0.1,0.5,0.4,0.8,1,0.8c0.4,0,0.8-0.1,1.2-0.2c0.8-0.3,1.6-0.7,2.1-1.4c0.1-0.2,0.2-0.4,0.1-0.5
				c-0.4-0.3-0.8-0.5-1.1-0.8c-0.3-0.3-0.5-0.7-0.8-1.1c-0.1,0-0.2,0.1-0.3,0.1c-0.1,0.3,0.1,0.8-0.4,1C11,14.3,10.7,14.1,10.5,13.9
				z M18,17.8c0.4,0.1,0.6,0,0.6-0.4c0.1-0.5-0.1-0.9-0.3-1.3c0,0-0.1,0-0.2-0.1C18,16.7,17.7,17.2,18,17.8z M10,14.1
				c0.1-0.2,0.1-0.3,0.2-0.5c-0.3,0-0.5,0-0.8,0C9.6,13.8,9.7,14.1,10,14.1z M11.3,13.5c-0.2,0-0.4,0-0.6,0.2
				c0.2,0.1,0.3,0.2,0.5,0.3C11.2,13.8,11.2,13.7,11.3,13.5z"/>
			<path d="M7.3,10.4c0.2,0.4,0.4,0.9,0.8,1.2c0.7,0.5,1.5,0.8,2.4,0.6c0.7-0.1,1.3-0.4,1.7-1c0.2-0.2,0.2-0.5,0.3-0.8
				c0.1-0.2,0.1-0.4,0.2-0.6c0,0,0.1,0,0.1,0c0,0.1,0.1,0.1,0.1,0.2c0.1,0.4,0,0.9-0.3,1.2c-0.8,1-1.8,1.4-3,1.3
				c-0.7-0.1-1.3-0.3-1.8-0.8C7.5,11.3,7.3,10.9,7.3,10.4L7.3,10.4z"/>
			<path d="M12.6,21.1c-0.2-0.6-0.8-1-0.6-1.7c0.4,0.6,0.8,1.3,1.3,2c-0.2,0-0.3,0-0.3,0c-0.2,0-0.5,0-0.7,0.1
				c-0.4,0.1-0.5,0.4-0.4,0.8c0.2,0.1,0.4,0.1,0.6-0.1c0.2-0.1,0.3-0.3,0.5-0.4c0.1-0.1,0.2-0.1,0.3-0.1c-0.2,0.5-0.5,0.9-1,1
				c-0.3,0.1-0.7-0.1-0.8-0.4c-0.1-0.2,0-0.4,0.1-0.6c0.2-0.3,0.5-0.5,0.9-0.6C12.3,21.2,12.4,21.2,12.6,21.1z"/>
			<path d="M13.4,2.7c0.1-0.4,0.5-0.6,0.9-0.8c0.3-0.2,0.7-0.2,1.1-0.1c0.3,0.1,0.6,0.1,0.9,0.2c0.9,0.2,1.6,0.1,2.3-0.5
				c0.1-0.1,0.2-0.2,0.3-0.2c0,0,0,0,0.1,0c0,0.3-0.2,0.4-0.3,0.6c-0.5,0.5-1.1,0.6-1.8,0.5c-0.2,0-0.4-0.1-0.6-0.1
				c-0.9-0.3-1.7-0.2-2.4,0.4C13.5,2.6,13.5,2.6,13.4,2.7C13.4,2.7,13.4,2.7,13.4,2.7z"/>
			<path d="M18.9,3.3C18.6,3.9,18,4,17.5,3.8c-0.3-0.1-0.5-0.3-0.8-0.4c-0.4-0.2-0.7-0.4-1.1-0.6c-0.5-0.2-0.9-0.1-1.3,0.2
				c-0.1,0.1-0.2,0.1-0.3,0.2c0.2-0.5,0.5-0.7,0.9-0.7c0.8-0.1,1.5,0.2,2.1,0.7c0,0,0,0,0,0c0.7,0.6,1.1,0.6,1.8,0.2
				C18.8,3.4,18.9,3.3,18.9,3.3z"/>
			<path d="M13.3,13.2c0.3-0.1,0.6-0.2,0.9-0.3c1-0.2,1.9-0.7,2.4-1.6c0.1-0.1,0.2-0.2,0.3-0.3c0.1,0.2,0,0.4-0.1,0.6
				c-0.3,0.6-0.8,1-1.5,1.3c-0.5,0.2-1,0.3-1.5,0.4C13.7,13.3,13.5,13.3,13.3,13.2z"/>
			<path d="M17.5,0.3c0.1,0.3-0.1,0.6-0.3,0.8c-0.2,0.3-0.5,0.4-0.8,0.4c-0.3,0-0.5,0-0.8-0.1c-0.4,0-0.8-0.1-1.2,0
				c-0.2,0-0.4,0.2-0.7,0.3c0,0-0.1,0.1-0.2,0.1c0.2-0.4,0.5-0.7,1-0.7c0.4,0,0.8,0,1.2,0c0.4,0,0.7,0.1,1-0.2
				c0.1-0.1,0.2-0.3,0.3-0.4c0.1-0.1,0.2-0.2,0.3-0.3C17.4,0.3,17.5,0.3,17.5,0.3z"/>
			<path d="M8.1,13.9c-1,0.3-1.9,0.2-2.8-0.4c-0.4-0.3-0.6-0.7-0.6-1.2c0.4,0.5,0.8,1,1.5,1.3C6.9,13.8,7.5,13.9,8.1,13.9z"/>
			<path d="M9.6,3.4C9.1,3.7,8.7,4,8.5,4.5C8.3,5,8.4,5.5,8.6,6C8.2,5.9,7.9,5.4,8,5C8.1,4.3,8.6,3.5,9.6,3.4z"/>
			<path d="M11.5,3.9c-0.3,0.4-0.5,0.7-0.3,1.2c0.1,0.4,0.6,0.6,0.8,0.9c-0.4,0.1-0.7,0.1-0.9-0.2c-0.3-0.4-0.4-0.9-0.2-1.4
				C11,4,11.2,3.9,11.5,3.9z"/>
			<path d="M9.3,6.1C8.9,5.7,8.7,5.3,8.8,4.8C9,4.1,9.4,3.7,10.2,3.6c-0.4,0.3-0.8,0.5-0.9,1C9.1,5.1,9.2,5.6,9.3,6.1z"/>
			<path d="M10.6,5.8c-0.2,0-0.3,0-0.4-0.1c-0.4-0.4-0.5-1-0.2-1.7c0.2-0.4,0.5-0.5,0.9-0.4C10,4.3,10,5,10.6,5.8z"/>
			<path d="M12.2,4.2c0.1,0,0.2,0,0.3,0c-0.2,0.4-0.1,0.7,0.3,1c0.1,0.1,0.3,0.2,0.5,0.3c-0.2,0.1-0.2,0.1-0.6,0.1
				C12,5,11.9,4.6,12.2,4.2z"/>
			<path d="M18,9.8c-0.1,0.4-0.4,0.6-0.6,0.8c0,0.1-0.2,0-0.3,0C17.4,10.3,17.5,9.9,18,9.8z"/>
			<path d="M7.7,8.4c0,0.1,0,0.3,0,0.4C7.6,9,7.4,8.9,7.2,8.9C7.2,8.8,7.1,8.7,7,8.6C7.2,8.2,7.3,8.2,7.7,8.4z"/>
			<path d="M10.2,9.4c0.1,0.1,0.3,0.2,0.2,0.4C10.2,9.7,10,9.6,9.8,9.6c-0.2,0-0.4,0.1-0.5,0.2C9.2,9.5,9.5,9.3,10.2,9.4z"/>
			<path d="M4.4,12.1C4,12,3.7,11.8,3.5,11.4c0.1,0,0.2,0,0.3,0C4,11.5,4.3,11.9,4.4,12.1z"/>
			<path d="M4.7,12c-0.4-0.3-0.5-0.7-0.3-1.1c0,0,0.1,0,0.1,0.1C4.7,11.3,4.7,11.6,4.7,12z"/>
			<path d="M16.9,10.5C16.8,10,17,9.7,17.2,9.4C17.4,9.7,17.3,10.1,16.9,10.5z"/>
			<path d="M17.3,11.2c0.1-0.4,0.5-0.6,0.8-0.6C18.1,10.9,17.7,11.2,17.3,11.2z"/>
			<path d="M12.7,8.1c-0.1,0.1-0.2,0.2-0.3,0.3c-0.4-0.1-0.4-0.2-0.2-0.5C12.5,7.8,12.5,7.8,12.7,8.1z"/>
			<path d="M4.2,12.5c-0.3,0-0.6-0.1-0.7-0.4C3.8,12,4.1,12.1,4.2,12.5z"/>
			<path d="M11.4,3.5c-0.1,0-0.2,0-0.4,0c0,0,0,0,0-0.1C11.1,3.5,11.2,3.5,11.4,3.5L11.4,3.5z"/>
			<path d="M13.4,2.7C13.4,2.7,13.3,2.7,13.4,2.7C13.3,2.7,13.3,2.7,13.4,2.7C13.3,2.7,13.3,2.7,13.4,2.7
				C13.4,2.7,13.4,2.7,13.4,2.7z"/>
			<path d="M7.3,10.4L7.3,10.4L7.3,10.4z"/>
			<path fill="#FFFFFF" d="M16.4,15.2C16.4,15.2,16.4,15.1,16.4,15.2C16.4,15.1,16.4,15.2,16.4,15.2L16.4,15.2z"/>
			<path d="M10.9,15.7c0.1,0,0.2,0,0.4,0c0,0.1,0,0.3,0,0.4c-0.1,0-0.2,0-0.4,0C10.9,16,10.9,15.9,10.9,15.7z"/>
			<path d="M10.8,14.8c0,0.1,0,0.2,0,0.3c-0.1,0-0.2,0.1-0.3,0.1c-0.2-0.1-0.2-0.3-0.1-0.4C10.6,14.8,10.7,14.8,10.8,14.8z"/>
		</g>
	</g>
	<g>
		<path fill="#6DCEF5" d="M28.4,9.1c0-0.1,0-0.2,0-0.3c0-0.1-0.2-0.3-0.3-0.2c0,0,0,0,0,0c0-0.1,0.1-0.3,0.1-0.4
			C28.3,8.1,28,8,27.9,8.1C28,8,28,7.9,28,7.8c0.1-0.2-0.1-0.2-0.2-0.2c0-0.1,0.1-0.2,0.1-0.3C28,7.1,27.8,7,27.7,7
			c0-0.1-0.1-0.2-0.2-0.1c0,0,0,0,0,0c0-0.1-0.1-0.2-0.2-0.2c-0.2-0.2-0.7-0.2-0.9-0.3c0,0,0,0-0.1,0c0-0.2-0.2-0.3-0.3-0.1
			c-0.5-0.2-1-0.4-1.6-0.4c-0.1,0-0.2,0.1-0.2,0.1C24,6,23.8,6.1,23.5,6.2c-0.1,0-0.2,0-0.4,0.1c-0.4,0.1-0.7,0.3-1.1,0.5
			C22,6.7,22,6.8,22,6.8c0,0,0,0,0,0c-0.2,0.1-0.1,0.4,0.1,0.3c0.2-0.1,0.3-0.1,0.5-0.2c0.1,0,0.2,0,0.2,0c0,0,0.1,0,0.1,0
			c0,0,0,0,0,0c0,0,0.1,0,0.1,0c0,0.1,0.1,0.2,0.2,0.2c0.1,0,0.3-0.1,0.4-0.1c0,0.1,0,0.1,0.1,0.2c-0.8,0-1.5,0-2.3,0.1
			c-0.2,0-0.2,0.3-0.1,0.3c-0.1,0-0.1,0.1-0.2,0.1c-0.1,0-0.1,0.1-0.1,0.2C21,8,21,8,20.9,8c0,0,0,0,0,0c0,0,0,0,0,0c0,0,0,0,0,0
			c-0.1,0-0.1,0.1-0.1,0.2c0,0,0,0,0,0c-0.2,0-0.2,0.4,0,0.3c1.2-0.1,2.4,0,3.7,0c0.1,0,0.1,0,0.2,0c0.2,0,0.3,0,0.5,0
			c0.1,0,0.1,0,0.1-0.1c0.1,0,0.2,0,0.3,0c0.2-0.2,0.1-0.4,0.1-0.6c0.1,0.1,0.2,0.1,0.2,0c0.1-0.1,0.2-0.2,0.3-0.3c0,0,0,0,0,0
			c0,0.1,0,0.1,0,0.2c0,0.1,0,0.1,0.1,0.2c0,0,0,0.1,0,0.1c-0.1,0.2,0.2,0.3,0.3,0.1c0,0,0-0.1,0.1-0.1c0.1,0,0.2,0,0.2,0
			C26.9,8,27,7.9,27.1,7.8c0,0.1,0,0.2,0,0.2c0,0.1,0.1,0.2,0.2,0.2c0,0.1,0,0.2,0,0.4c0,0.1,0.1,0.2,0.2,0.2c0,0.1,0,0.2,0,0.3
			c0,0.2,0.1,0.3,0.2,0.2c0,0,0,0,0,0.1c0,0.2,0.2,0.3,0.3,0.2c0,0,0.1-0.1,0.1-0.1c0,0.1,0,0.2,0,0.3c0,0.2,0.2,0.3,0.3,0.1
			c0.1-0.1,0.1-0.3,0.2-0.4C28.5,9.2,28.4,9.1,28.4,9.1z M24.5,7.3c0.1,0,0.2-0.1,0.3-0.1c0,0,0,0.1,0,0.1c0,0,0,0,0,0
			C24.6,7.3,24.6,7.3,24.5,7.3z M26.4,6.8C26.4,6.8,26.4,6.8,26.4,6.8C26.5,6.8,26.5,6.8,26.4,6.8C26.5,6.8,26.5,6.8,26.4,6.8z
			 M25.4,6.4C25.3,6.4,25.3,6.4,25.4,6.4c-0.1,0-0.1-0.1-0.1-0.1C25.3,6.3,25.4,6.3,25.4,6.4C25.4,6.4,25.4,6.4,25.4,6.4z M24.8,6.2
			C24.8,6.2,24.8,6.2,24.8,6.2C24.8,6.2,24.8,6.2,24.8,6.2C24.8,6.2,24.8,6.2,24.8,6.2C24.8,6.2,24.8,6.2,24.8,6.2z M24.2,7.1
			c0,0,0,0.1,0.1,0.1c-0.1,0-0.2,0-0.3,0C24,7.2,24.1,7.2,24.2,7.1z M22.8,7.8c-0.2,0-0.3,0-0.5,0c0.1,0,0.2,0,0.4-0.1
			C22.8,7.7,22.8,7.8,22.8,7.8z M24.1,8.1c0.1,0,0.3,0,0.4,0c0,0,0,0-0.1,0C24.3,8.1,24.2,8.1,24.1,8.1z M25.3,7.5
			C25.3,7.5,25.3,7.5,25.3,7.5C25.2,7.5,25.2,7.5,25.3,7.5c0-0.1,0,0,0.1,0C25.4,7.5,25.4,7.5,25.3,7.5C25.4,7.5,25.3,7.5,25.3,7.5z
			 M26.5,6.8c0.1,0,0.1,0.1,0.2,0.1c0,0.1,0,0.1-0.1,0.2c0,0,0,0,0,0c0,0,0-0.1,0-0.1C26.6,6.9,26.6,6.9,26.5,6.8z M25.5,7.5
			C25.5,7.5,25.5,7.5,25.5,7.5C25.6,7.5,25.6,7.5,25.5,7.5C25.5,7.5,25.5,7.5,25.5,7.5z"/>
		<path fill="#6DCEF5" d="M26.4,20.2c0-0.1-0.1-0.3-0.2-0.2c-0.1,0-0.1,0.1-0.2,0.1c0-0.1,0-0.1-0.1-0.2c-0.2-0.1-0.5,0.1-0.6,0.2
			c-0.2,0.1,0,0.4,0.2,0.3c0,0,0.1-0.1,0.2-0.1c0,0.1,0,0.1-0.1,0.2c0,0.1,0.1,0.3,0.3,0.2c0,0,0,0,0.1,0c0.1,0,0.1,0.1,0.2,0
			c0.2-0.1,0.3-0.2,0.4-0.3C26.5,20.3,26.5,20.2,26.4,20.2z"/>
		<path fill="#6DCEF5" d="M22.8,20c-0.1,0-0.1,0-0.2,0c0,0-0.1,0-0.1,0.1c0-0.1-0.2-0.2-0.3-0.1c-0.2,0.2-0.3,0.3-0.5,0.5
			c-0.1,0.2,0.1,0.4,0.2,0.3c0.1,0.1,0.2,0.1,0.3,0c0.1-0.1,0.1-0.2,0.2-0.3c0,0,0,0.1,0,0.1c0,0.2,0.2,0.2,0.3,0.1
			c0.2-0.2,0.3-0.3,0.3-0.6C23.1,19.9,22.9,19.8,22.8,20z"/>
		<path fill="#00A3DF" d="M25.5,18.4c0,0.2,0.3,0.2,0.3,0c0.1-0.3,0.1-0.5,0-0.8c0-0.1,0-0.1-0.1-0.1c0-0.1-0.1-0.2-0.2-0.2
			c0-0.1,0-0.1,0-0.2c0,0,0.1-0.1,0.1-0.1c0.1-0.1,0-0.2-0.1-0.2c0.1-0.2,0.2-0.5,0.2-0.7c0-0.1,0-0.2-0.1-0.2c0,0,0-0.1,0-0.1
			c0,0,0-0.1,0-0.1c0,0,0-0.1,0-0.1c0-0.2-0.2-0.3-0.3-0.1c0-0.2,0.1-0.4,0.2-0.6c0.1-0.1,0-0.2-0.1-0.3c0-0.1,0-0.1,0-0.2
			c0-0.1-0.1-0.2-0.2-0.2c-0.1,0-0.1-0.1-0.2,0c-0.1,0-0.1,0.1-0.2,0.1c-0.1,0.1-0.1,0.3,0.1,0.3c0,0,0.1,0.1,0.1,0.1
			c0,0,0,0.1,0,0.1c0,0,0,0,0,0.1c0,0,0,0,0,0.1c0,0,0,0,0,0c0,0,0,0,0,0c0,0,0,0,0,0c0,0.1,0,0.1-0.1,0.2c0,0-0.1,0.1-0.1,0.1
			c0,0.1,0,0.2-0.1,0.3c0,0,0,0,0,0.1c-0.1,0-0.1,0-0.2,0.1c0,0.1-0.1,0.1-0.1,0.2c0,0,0,0,0,0c0-0.2-0.2-0.3-0.3-0.1
			c0,0,0-0.1,0-0.1c0.1-0.2-0.2-0.3-0.3-0.1c0,0,0,0.1-0.1,0.1c-0.1,0-0.1,0-0.2,0.1c0,0,0,0,0,0.1c0,0-0.1,0-0.1,0
			c0-0.1,0.1-0.1,0.1-0.2c0.1-0.2-0.1-0.4-0.3-0.2c0,0-0.1,0.1-0.1,0.1c0,0,0-0.1,0-0.1c0-0.1,0-0.2-0.1-0.2c0-0.1,0-0.2-0.1-0.2
			c0.1-0.1,0.2-0.3,0.2-0.4c0.1-0.1,0-0.3-0.2-0.3c-0.1,0-0.2,0.1-0.3,0.1c0-0.1-0.2-0.3-0.3-0.1c-0.2,0.2-0.2,0.1-0.3,0.4
			c-0.1,0.1,0,0.3,0.2,0.3c0,0,0.1,0,0.1,0c0,0,0,0,0,0c-0.1,0-0.1,0-0.2,0c-0.2,0.2-0.3,0.3-0.4,0.6c-0.1,0.1,0,0.2,0.1,0.3
			c0,0,0,0,0,0.1c0,0.1,0,0.1,0,0.2c-0.1,0.1-0.1,0.1-0.2,0.2c0,0,0,0,0,0c0,0,0,0,0,0c-0.1,0.2,0.2,0.4,0.3,0.2
			c-0.1,0.2-0.3,0.4-0.4,0.6c-0.1,0.2,0.1,0.3,0.2,0.2c0,0,0.1,0.1,0.1,0.1c-0.1,0.1-0.1,0.3-0.2,0.4c-0.1,0.1,0.1,0.3,0.2,0.3
			c0,0-0.1,0.1-0.1,0.1c-0.1,0.1-0.2,0.2-0.2,0.3c0,0.2,0.2,0.3,0.3,0.1c0-0.1,0.1-0.1,0.1-0.2c0-0.1,0.1-0.1,0.1-0.2
			c0,0,0,0.1,0,0.1c0,0.2,0.2,0.3,0.3,0.1c0,0,0-0.1,0.1-0.1c0,0,0.1,0.1,0.1,0.1c0,0.1,0,0.1-0.1,0.2c-0.1,0.2,0.2,0.3,0.3,0.1
			c0.1-0.2,0.2-0.4,0.3-0.6c0.1,0,0.1,0,0.2-0.1c0.1-0.1,0.1-0.3,0.2-0.4c0,0,0,0,0,0c0,0,0.1,0.1,0.1,0.1c0,0,0,0.1-0.1,0.1
			c0,0.1,0,0.1,0,0.1c0,0.1-0.1,0.2-0.1,0.3c0,0.1,0,0.2,0.2,0.2c0,0,0,0,0,0.1c0,0.1,0.1,0.2,0.3,0.2c0,0,0,0,0,0
			c0,0.2,0.2,0.3,0.3,0.1c0.1-0.2,0.2-0.4,0.3-0.6c0,0,0,0.1,0,0.1c0,0.1,0.1,0.1,0.1,0.2C25.3,18.5,25.5,18.6,25.5,18.4z M25,17
			C24.9,17,24.9,17,25,17c0-0.2,0.1-0.4,0.2-0.6c0,0,0,0,0,0c0,0,0,0,0,0C25.1,16.6,25,16.8,25,17z M25.3,15.6
			C25.3,15.6,25.3,15.6,25.3,15.6C25.3,15.6,25.3,15.6,25.3,15.6C25.3,15.6,25.3,15.6,25.3,15.6z M24.9,17.8
			C24.9,17.8,24.9,17.8,24.9,17.8c0-0.1,0-0.1,0-0.1c0-0.1,0.1-0.1,0.1-0.2c0,0,0,0.1,0,0.1C25,17.7,25,17.7,24.9,17.8
			C24.9,17.8,24.9,17.8,24.9,17.8z"/>
		<g>
			<path fill="#FFFFFF" d="M25.9,14.4C25.9,14.4,25.9,14.4,25.9,14.4C25.9,14.4,25.9,14.5,25.9,14.4c0.5,0.3,0.9,0.5,1.3,0.8
				c0.2,0.1,0.4,0.2,0.4,0.5c-0.1,0.1-0.1,0.2-0.2,0.2c-0.2,0.1-0.4,0.2-0.7,0.3c-0.1,0-0.3,0.1-0.3,0.3c0.3,0.1,0.6,0,0.9-0.2
				c0.2-0.1,0.3-0.2,0.4-0.4c0.1-0.1,0.1-0.3,0-0.5c-0.1-0.1-0.3-0.3-0.4-0.4C26.8,14.7,26.3,14.6,25.9,14.4z"/>
			<path fill="#FFFFFF" d="M22.3,12c-0.1,0.3,0,0.5,0.1,0.8c0.3,0.5,0.8,0.7,1.3,0.8c0.4,0.1,0.8,0,1.2-0.2c0.3-0.1,0.5-0.3,0.7-0.5
				c0.1-0.2,0.2-0.4,0.1-0.7c-0.1,0.1-0.1,0.1-0.2,0.1c-0.1,0.1-0.1,0.2-0.2,0.3c-0.2,0.4-0.5,0.6-0.9,0.7c-0.7,0.1-1.3,0-1.8-0.6
				C22.6,12.5,22.5,12.2,22.3,12z"/>
			<path fill="#FFFFFF" d="M22.2,14.3C22.2,14.3,22.2,14.3,22.2,14.3c-0.1,0-0.1,0-0.1,0c-0.3,0.2-0.6,0.3-0.9,0.5
				c-0.2,0.1-0.3,0.2-0.5,0.3c-0.3,0.2-0.4,0.5-0.1,0.9c0.3,0.3,0.7,0.5,1.2,0.6c0.1-0.1,0-0.2-0.1-0.2c-0.2-0.1-0.4-0.2-0.6-0.3
				c-0.3-0.1-0.3-0.3-0.3-0.6C21.2,14.9,21.7,14.6,22.2,14.3z"/>
			<path fill="#FFFFFF" d="M22.3,7.4c0.2,0,0.3-0.1,0.5-0.1c0.3,0,0.5,0,0.8,0c0.5,0,0.9,0.1,1.3,0.2c0.2,0,0.4,0.1,0.6,0
				C24.9,6.9,23,6.9,22.3,7.4z"/>
			<path fill="#FFFFFF" d="M25.5,14.5C25.4,14.5,25.4,14.5,25.5,14.5c0.1,0.6,0.2,1.1,0.3,1.7c-0.1,0-0.2,0-0.3,0.1
				c-0.1,0-0.3,0-0.2,0.2c0.3,0.1,0.6-0.1,0.9-0.1c-0.1-0.1-0.2-0.1-0.2-0.2C25.9,15.5,25.8,14.9,25.5,14.5z"/>
			<path fill="#FFFFFF" d="M22.8,14.3c-0.4,0.4-0.4,1-0.4,1.5c-0.1,0.1-0.3,0-0.3,0.2c0.2,0,0.5,0.1,0.8-0.1
				c-0.1-0.1-0.2-0.1-0.3-0.1C22.6,15.3,22.7,14.8,22.8,14.3z"/>
			<path fill="#FFFFFF" d="M22.4,10.7c0.2-0.3,0.2-0.4-0.2-0.5c-0.2,0.2-0.2,0.3,0,0.5C22.2,10.7,22.3,10.7,22.4,10.7z"/>
			<path fill="#FFFFFF" d="M27,8.6c-0.2,0.3-0.3,0.6-0.4,0.9C26.9,9.4,27.1,9,27,8.6z"/>
			<path fill="#FFFFFF" d="M26.9,10c0.4-0.1,0.6-0.6,0.4-0.9C27.3,9.4,27,9.6,26.9,10z"/>
			<path fill="#FFFFFF" d="M26.6,8.3c-0.1,0.3-0.4,0.6-0.4,1c0.1,0,0.2,0,0.2-0.1C26.5,8.9,26.6,8.6,26.6,8.3z"/>
			<path fill="#FFFFFF" d="M24.4,11.7c0-0.1,0-0.1,0-0.2c-0.1-0.2-0.6-0.3-0.7-0.1c0,0,0,0,0,0C23.9,11.5,24.2,11.6,24.4,11.7z"/>
			<path fill="#FFFFFF" d="M27.4,10.3c0.4-0.1,0.3-0.4,0.4-0.6c-0.1,0-0.1-0.1-0.2-0.1C27.5,9.8,27.4,10,27.4,10.3z"/>
			<path fill="#FFFFFF" d="M21.9,16.3c0,0,0.1,0.1,0.1,0.1c0.2,0,0.4,0.1,0.6,0C22.6,16.2,22.2,16.2,21.9,16.3z"/>
			<path fill="#FFFFFF" d="M25.4,10.5c0,0.1,0.1,0.2,0.1,0.2c0.1,0,0.2,0,0.2,0c0.1-0.2,0.1-0.3,0-0.4c-0.1,0-0.1,0-0.2,0
				C25.5,10.4,25.5,10.5,25.4,10.5z"/>
			<path fill="#FFFFFF" d="M21.9,16.7c0.2,0.1,0.4,0.2,0.6,0.2c0.1,0,0.1,0,0.2-0.1C22.5,16.6,22.2,16.6,21.9,16.7z"/>
			<path fill="#FFFFFF" d="M26,16.6c-0.2-0.1-0.5,0-0.6,0.3C25.6,16.9,25.9,16.8,26,16.6z"/>
			<path fill="#FFFFFF" d="M26.3,16.7c-0.1,0-0.2,0-0.3,0.1c0,0,0,0.1,0,0.2C26.3,16.9,26.3,16.9,26.3,16.7z"/>
			<path d="M29,11c0.1,0.5-0.1,0.7-0.7,0.7c0,0-0.1-0.1-0.2-0.2c-0.5,1.7-1.7,2.5-3.4,2.8c0,0.3-0.2,0.5-0.5,0.5
				c-0.2,0-0.4,0-0.5-0.1c-0.1-0.1-0.2-0.3-0.2-0.4c-0.1,0-0.1,0-0.2,0c0,0.2,0,0.4,0,0.6c0,0.2,0,0.4,0,0.6c0.1,0,0.1,0.1,0.2,0.1
				c0.3,0,0.7,0.1,1,0.1c0.2,0,0.3,0,0.4-0.2c0-0.4,0-0.7,0.1-1.1c0,0,0,0,0.1-0.1c0,0.1,0.1,0.2,0.1,0.3c0,0.3,0,0.5,0,0.8
				c0,0.2-0.1,0.3-0.4,0.4c-0.2,0-0.4,0-0.6,0c-0.3,0-0.6,0-0.9-0.1c-0.3-0.1-0.3-0.3-0.3-0.6c0-0.2,0.1-0.5,0.1-0.7
				c0-0.1,0-0.1,0-0.2c-1.7-0.4-2.8-1.3-3.1-3.2c-0.3,0.1-0.5,0.2-0.7,0c-0.2-0.2-0.2-0.5-0.1-0.8c0,0,0.1-0.1,0.2-0.1c0,0,0,0,0,0
				c0.1,0,0.2,0,0.3,0c-0.1,0.1-0.2,0.2-0.3,0.3c-0.1,0.1,0,0.3,0,0.4C19.6,11,19.8,11,20,11c0.1-0.4,0.1-0.8,0.2-1.2
				c0.1-0.4,0.3-0.7,0.5-1.1c-0.1,0-0.1-0.1-0.2-0.1c-0.1-0.2,0-0.3,0.1-0.4C21,7.8,21.4,7.4,22,7.4c-0.4,0.3-0.9,0.5-1.2,1.1
				c0.3,0,0.6,0,0.8,0c0.8-0.1,1.6-0.1,2.4,0c0.3,0,0.6,0.1,0.8,0.2c0.3,0.1,0.4,0,0.5-0.2c0.1-0.2,0.3-0.5,0.5-0.6
				c0.1,0,0.1-0.1,0.2-0.1c0,0.3-0.2,0.4-0.3,0.6c-0.1,0.2-0.3,0.4-0.4,0.5c-0.4,0.2-0.7,0-1,0c-0.1,0-0.2-0.1-0.3-0.1
				c-0.8,0-1.6,0-2.4,0c-0.3,0-0.6,0.1-1,0.1c-0.4,0.7-0.6,1.4-0.5,2.2c0.1,0.8,0.4,1.4,0.9,2c0.5,0.5,1.1,0.8,1.7,1
				c0.6,0.2,1.2,0.2,1.8,0.1c0.6-0.1,1.2-0.3,1.8-0.6c0.7-0.5,1.2-1.1,1.3-1.9c0.1-0.3,0.1-0.7,0.2-1c0,0,0,0-0.1,0
				c0.1,0,0.1-0.1,0.2-0.1c-0.2-1.1-0.8-1.9-1.8-2.5c0.4,0.1,0.8,0.4,1.1,0.7c0.3,0.3,0.5,0.7,0.8,1.1c0.1-0.3,0.1-0.7,0-1
				c0-0.2-0.1-0.4-0.2-0.6c-0.1-0.2-0.1-0.4-0.2-0.6l0,0c0.3,0.2,0.4,0.6,0.6,0.9c0.2,0.5,0.3,0.9,0.2,1.4c-0.1,0.3-0.2,0.6-0.4,0.9
				c0,0.1,0,0.2,0.1,0.2c-0.2,0.1-0.1,0.3-0.2,0.5c0.5,0.1,0.6,0,0.7-0.2"/>
			<path d="M28.8,11.1c-0.1-0.2-0.3-0.3-0.5-0.3c0.1,0,0.1-0.1,0.2-0.1c0.1,0,0.2,0,0.3,0"/>
			<path d="M23.8,14.6c0.5,0.1,0.8,0,0.8-0.3c-0.3,0-0.6,0-1,0C23.7,14.5,23.7,14.6,23.8,14.6z"/>
			<path d="M25.7,18.4c0-0.4,0-0.8,0-1.1c0,0,0,0,0.1,0C26,17.6,26,18,26,18.4c-0.1,0.2-0.2,0.3-0.5,0.3c-0.1,0-0.2,0-0.3,0
				c0,0.5,0,0.9,0,1.4c0.1,0,0.2,0,0.3-0.1c0.2-0.1,0.5,0,0.7,0c0.2,0.1,0.3,0.2,0.4,0.4c0,0.2-0.1,0.3-0.2,0.4
				c-0.3,0-0.5,0.1-0.8-0.1c-0.2-0.1-0.4-0.3-0.7-0.4c-0.1-0.3,0-0.5,0-0.8c0-0.3,0-0.6,0-0.9c-0.2-0.1-0.4,0.1-0.7,0
				c0,0-0.1-0.1-0.1-0.1c0-0.2,0-0.4,0-0.6c-0.2,0-0.3,0-0.3,0.2c0,0.1-0.1,0.3-0.1,0.4c-0.2,0-0.4,0-0.6,0c0,0.3,0,0.6,0,0.9
				c0,0.2,0.1,0.3-0.1,0.5C23.1,20.1,23,20,23,20c-0.2-0.1-0.5-0.1-0.7,0.1c-0.2,0.1-0.3,0.2-0.2,0.5c0.4,0.1,0.7-0.2,1-0.3
				c-0.1,0.3-0.6,0.6-1.1,0.6c-0.1,0-0.1-0.1-0.2-0.1c-0.2-0.4,0.1-0.8,0.5-0.9c0.2-0.1,0.5-0.1,0.7,0c0-0.4,0.1-0.8,0.1-1.2
				c-0.2,0-0.4-0.1-0.6-0.1c-0.2,0-0.3-0.1-0.4-0.2c-0.1-0.4,0-0.7,0.2-1.1c0.1,0.3,0,0.7,0,1c0.4,0.1,0.8,0.2,1.3,0.3
				c0.2-0.2,0-0.5,0.2-0.7c0.3-0.1,0.3-0.1,0.6,0c0.1,0.2-0.1,0.5,0.2,0.7C24.9,18.4,25.3,18.5,25.7,18.4z M25.2,20.3
				c0.3,0.1,0.5,0.2,0.7,0.3c0.2,0.1,0.3,0,0.4-0.2C26.1,20.1,25.7,20,25.2,20.3z"/>
			<path d="M27.8,7.5c-0.2-0.1-0.4-0.2-0.6-0.3c0-0.1,0-0.2-0.1-0.4c-0.1,0-0.2,0-0.2,0.1c-0.2-0.1-0.5-0.2-0.7-0.4
				c-0.2-0.1-0.5-0.2-0.7-0.3c-0.4-0.1-0.7-0.1-1.1-0.1c-0.8,0-1.5,0.3-2.1,0.7C22.2,6.9,22.1,6.9,22,7c0,0,0-0.1,0.1-0.1
				c0.3-0.4,0.8-0.6,1.2-0.8C24,5.8,24.8,5.9,25.5,6c0.2,0,0.4,0.1,0.6,0.2c0.1,0,0.1,0,0.2,0l0,0c0.2,0.1,0.4,0.3,0.6,0.4
				c0.1-0.1,0.2-0.1,0.3-0.1c0,0,0.1,0.1,0.1,0.2c0,0.1-0.1,0.1-0.1,0.2c0.2,0.2,0.3,0.3,0.5,0.5C27.8,7.3,27.8,7.4,27.8,7.5
				L27.8,7.5z"/>
			<path d="M22.3,12c0.1,0.3,0.2,0.5,0.4,0.7c0.4,0.6,1.1,0.8,1.8,0.6c0.4-0.1,0.7-0.3,0.9-0.7c0-0.1,0.1-0.2,0.2-0.3
				c0,0,0.1-0.1,0.2-0.1c0.1,0.3,0,0.5-0.1,0.7c-0.2,0.3-0.4,0.4-0.7,0.5c-0.4,0.2-0.8,0.3-1.2,0.2c-0.5-0.1-1-0.4-1.3-0.8
				C22.3,12.5,22.3,12.3,22.3,12z"/>
			<path d="M22.2,14.3c-0.5,0.3-1,0.7-1.5,1c0,0.4,0,0.5,0.3,0.6c0.2,0.1,0.4,0.2,0.6,0.3c0.1,0,0.2,0.1,0.1,0.2
				c-0.4-0.1-0.8-0.3-1.2-0.6c-0.3-0.3-0.2-0.7,0.1-0.9c0.2-0.1,0.3-0.2,0.5-0.3c0.3-0.2,0.6-0.3,0.9-0.5
				C22.1,14.3,22.1,14.3,22.2,14.3C22.2,14.3,22.2,14.3,22.2,14.3z"/>
			<path d="M25.9,14.4c0.5,0.2,1,0.3,1.4,0.6c0.2,0.1,0.3,0.3,0.4,0.4c0.1,0.1,0.1,0.3,0,0.5c-0.1,0.1-0.3,0.3-0.4,0.4
				c-0.3,0.2-0.6,0.3-0.9,0.2c0-0.2,0.2-0.2,0.3-0.3c0.2-0.1,0.5-0.2,0.7-0.3c0.1,0,0.2-0.2,0.2-0.2c0-0.3-0.2-0.4-0.4-0.5
				C26.8,14.9,26.3,14.7,25.9,14.4C25.9,14.5,25.9,14.4,25.9,14.4L25.9,14.4z"/>
			<path d="M22.3,7.4c0.7-0.4,2.6-0.4,3.2,0.2c-0.2,0.1-0.4,0-0.6,0c-0.4-0.1-0.9-0.2-1.3-0.2c-0.3,0-0.5,0-0.8,0
				C22.6,7.3,22.5,7.3,22.3,7.4z"/>
			<path d="M25.5,14.5c0.4,0.5,0.4,1.1,0.5,1.7c0.1,0,0.1,0.1,0.2,0.2c-0.3,0.1-0.6,0.2-0.9,0.1c0-0.2,0.1-0.2,0.2-0.2
				c0.1,0,0.2,0,0.3-0.1C25.7,15.6,25.5,15,25.5,14.5C25.4,14.5,25.4,14.5,25.5,14.5z"/>
			<path d="M22.8,14.3c-0.1,0.5-0.2,1-0.3,1.5c0.1,0,0.2,0.1,0.3,0.1c-0.3,0.2-0.5,0.1-0.8,0.1c0-0.2,0.2-0.2,0.3-0.2
				C22.4,15.3,22.4,14.7,22.8,14.3z"/>
			<path d="M22.4,10.7c-0.1,0-0.2,0-0.3,0c-0.2-0.2-0.2-0.3,0-0.5C22.5,10.3,22.6,10.5,22.4,10.7z"/>
			<path d="M27,8.6c0.1,0.3-0.1,0.8-0.4,0.9C26.7,9.2,26.8,8.9,27,8.6z"/>
			<path d="M26.9,10c0-0.3,0.3-0.5,0.4-0.9C27.5,9.4,27.3,9.8,26.9,10z"/>
			<path d="M26.6,8.3c0,0.3-0.1,0.6-0.3,0.9c0,0.1-0.1,0.1-0.2,0.1C26.2,8.9,26.5,8.6,26.6,8.3z"/>
			<path d="M24.4,11.7c-0.3-0.1-0.5-0.1-0.7-0.2c0,0,0,0,0,0c0.2-0.2,0.6-0.2,0.7,0.1C24.5,11.5,24.4,11.6,24.4,11.7z"/>
			<path d="M27.4,10.3c0-0.3,0.2-0.5,0.3-0.8c0.1,0.1,0.1,0.1,0.2,0.1C27.7,9.9,27.7,10.2,27.4,10.3z"/>
			<path d="M21.9,16.3c0.3-0.2,0.7-0.1,0.7,0.2c-0.2,0.1-0.4,0-0.6,0C22,16.4,22,16.4,21.9,16.3z"/>
			<path d="M27.4,6.2c-0.1-0.1-0.1-0.1-0.2-0.2c-0.3,0-0.6-0.1-0.9,0.2l0,0c0.2-0.3,0.3-0.4,0.6-0.4C27.2,5.8,27.3,6,27.4,6.2
				L27.4,6.2z"/>
			<path d="M25.4,10.5c0.1-0.1,0.1-0.1,0.2-0.2c0.1,0,0.1,0,0.2,0c0.1,0.1,0.1,0.3,0,0.4c-0.1,0-0.1,0-0.2,0
				C25.5,10.7,25.5,10.6,25.4,10.5z"/>
			<path d="M21.9,16.7c0.3-0.1,0.5,0,0.8,0.1c-0.1,0-0.2,0.1-0.2,0.1C22.3,16.9,22.1,16.8,21.9,16.7z"/>
			<path d="M26,16.6c-0.1,0.2-0.4,0.3-0.6,0.3C25.5,16.6,25.8,16.5,26,16.6z"/>
			<path d="M26.3,16.7c0,0.2,0,0.2-0.3,0.3c0-0.1,0-0.1,0-0.2C26.1,16.8,26.2,16.8,26.3,16.7z"/>
			<path d="M25.9,14.4C25.9,14.4,25.9,14.4,25.9,14.4L25.9,14.4z"/>
			<polygon points="27.3,6.2 27.4,6.2 27.4,6.2 			"/>
		</g>
	</g>
	<g>
		<path fill="#00A675" d="M61,21.5C61,21.5,61,21.5,61,21.5C60.9,21.5,60.9,21.5,61,21.5C60.9,21.5,61,21.5,61,21.5
			c0-0.1,0-0.1,0-0.2c0,0,0-0.1,0.1-0.1c0.1-0.1,0-0.2-0.1-0.1c-0.2,0.1-0.3,0.2-0.5,0.3c0,0,0-0.1,0-0.1c0-0.1,0-0.2-0.1-0.1
			c0,0,0,0-0.1,0c0.1-0.1,0-0.2-0.1-0.1c-0.1,0-0.1,0.1-0.2,0.1c0-0.1-0.1-0.1-0.1-0.1c0,0,0,0,0,0l0,0c0,0,0,0,0,0
			c0,0-0.1,0.1-0.2,0.1c0,0-0.1,0-0.1,0c0,0-0.1,0.1-0.1,0.1c0,0,0,0,0,0c0,0,0,0,0,0c0,0.1,0.1,0.1,0.1,0.1c0,0,0,0,0,0
			c-0.1,0.1,0,0.2,0.1,0.1c0,0,0.1,0,0.1,0c0,0.1,0.1,0.1,0.1,0.1c0,0,0.1-0.1,0.1-0.1c0,0,0,0,0,0c0,0.1,0,0.1,0.1,0.1
			c0,0,0.1,0,0.1,0c0,0,0,0,0.1,0c0,0,0.1,0,0.1,0c0,0,0,0,0,0c0,0,0,0,0,0c0,0,0.1,0.1,0.1,0c0,0,0.1,0,0.1,0c0,0,0.1,0.1,0.1,0.1
			c0.1,0,0.1,0,0.2-0.1c0,0,0-0.1,0-0.1c0,0,0,0,0,0C61.2,21.7,61.1,21.5,61,21.5z"/>
		<path fill="#00A675" d="M56.8,21.1C56.8,21.1,56.8,21.1,56.8,21.1C56.8,21.1,56.8,21.1,56.8,21.1c0-0.1-0.1-0.2-0.1-0.1
			c0,0-0.1-0.1-0.1,0c0,0,0-0.1,0.1-0.1c0-0.1-0.1-0.2-0.2-0.1c0,0.1-0.1,0.1-0.1,0.2c0,0,0,0,0,0c0,0,0,0,0,0c0,0,0-0.1,0-0.1
			c0,0,0,0,0-0.1c0-0.1-0.1-0.2-0.2,0c0,0.1-0.1,0.2-0.1,0.2c0,0-0.1,0-0.1,0c0,0,0,0.1-0.1,0.1c0,0,0-0.1,0.1-0.1
			c0-0.1,0-0.1-0.1-0.1c0-0.1-0.1-0.1-0.1,0c0,0,0,0,0,0c0,0,0,0,0,0c0,0,0,0,0,0c0,0,0,0,0,0c0,0,0,0,0,0c0-0.1-0.1-0.2-0.2-0.1
			c-0.1,0.2-0.2,0.3-0.2,0.5c0,0.1,0.2,0.1,0.2,0c0,0,0-0.1,0-0.1c0,0,0,0,0.1,0c0,0.1,0,0.1,0,0.2c0,0.1,0.1,0.1,0.2,0.1
			c0,0,0.1-0.1,0.1-0.1c0,0.1,0,0.1,0,0.2c0,0.1,0,0.1,0.1,0.1c0,0,0.1,0.1,0.1,0c0,0,0-0.1,0.1-0.1c0,0,0,0,0,0c0,0,0.1,0,0.1,0
			c0-0.1,0.1-0.1,0.1-0.2c0,0,0,0,0.1,0c0,0.1,0.1,0.1,0.1,0.1c0,0.1,0.1,0.1,0.2,0c0,0,0-0.1,0.1-0.1c0,0,0,0,0.1,0
			c0,0,0.1-0.1,0.1-0.1C57,21.2,56.9,21.1,56.8,21.1z"/>
		<g>
			<path fill="#9FD29D" d="M57,21C57,21,57,21,57,21C57,21,57,21,57,21z"/>
			<path fill="#9FD29D" d="M60.6,19.5c-0.1,0.1-0.2,0.2-0.3,0.3c0.1-0.3,0.2-0.5,0.2-0.8c0-0.1,0-0.1-0.1-0.2c0-0.1-0.2-0.2-0.3-0.1
				c0-0.1,0.1-0.2,0.1-0.3c0-0.1,0-0.2-0.1-0.2c0,0,0,0,0,0c0-0.1,0-0.2-0.1-0.2c0-0.1,0.1-0.2,0.1-0.3c0-0.1,0-0.2-0.1-0.2
				c0-0.1-0.2-0.2-0.3-0.1c0,0,0,0,0,0c0,0,0,0-0.1,0c0-0.1-0.2-0.2-0.3-0.1c-0.1,0.1-0.1,0.2-0.2,0.3c0-0.1,0.1-0.1,0.1-0.2
				c0.1-0.2-0.2-0.3-0.3-0.2c0,0,0,0,0,0c-0.1,0-0.2,0-0.3,0c0.1-0.2,0.3-0.4,0.4-0.6c0.1-0.2-0.2-0.3-0.3-0.2
				c-0.2,0.2-0.3,0.4-0.5,0.6c-0.1,0-0.2-0.1-0.3-0.1c0-0.1-0.2-0.1-0.3,0c-0.2,0-0.3,0-0.5,0.1c0-0.1,0-0.2,0.1-0.3
				c0-0.2-0.2-0.3-0.3-0.1c-0.6,1-0.5,2.3-0.4,3.4c0,0.1-0.1,0.1-0.1,0.2c-0.1,0.2,0.1,0.3,0.2,0.2c0,0,0,0,0,0
				c-0.1,0.1-0.2,0.2-0.2,0.3C56.6,21,56.8,21.2,57,21c0,0,0,0,0,0c0,0,0,0,0,0c0.1-0.1,0.2-0.2,0.2-0.2c0,0,0,0,0,0
				c0,0.1,0.2,0.1,0.3,0.1c0,0,0,0,0,0c0,0.1,0,0.1,0,0.2c0,0.1,0.2,0.2,0.3,0.1c0.4-0.4,0.7-0.9,1-1.5c0.1,0,0.1,0,0.2-0.1
				c0,0,0,0,0,0c0,0,0,0,0,0c0,0,0,0,0,0c0,0.1,0,0.1-0.1,0.2c-0.1,0.2,0.2,0.3,0.3,0.1c0.1-0.3,0.3-0.5,0.4-0.8
				c0,0.1,0,0.1-0.1,0.2c-0.2,0.4-0.4,0.9-0.6,1.3c-0.1,0.2,0.2,0.3,0.3,0.1c0,0,0.1-0.1,0.1-0.1c0,0,0.1,0,0.1,0c0,0,0,0,0,0
				c0,0.1,0,0.1,0,0.2c0,0.1,0,0.2,0,0.3c0,0.2,0.2,0.2,0.3,0.1c0.2-0.2,0.3-0.4,0.3-0.7c0.1-0.1,0.1-0.1,0.2-0.2
				c-0.1,0.2-0.2,0.4-0.3,0.6c-0.1,0.1,0.1,0.3,0.2,0.2c0.2-0.1,0.3-0.3,0.4-0.5c0-0.1,0-0.1,0-0.1c0.1-0.3,0.3-0.6,0.4-0.9
				C61,19.5,60.8,19.4,60.6,19.5z M58,17.4C58.1,17.4,58.1,17.4,58,17.4C58.1,17.4,58.1,17.4,58,17.4C58.1,17.4,58.1,17.4,58,17.4z
				 M57.2,19c0,0,0.1,0,0.2,0c0,0.1-0.1,0.1-0.1,0.2c0,0.1,0,0.2,0,0.2c0,0.1-0.1,0.1-0.1,0.2C57.1,19.4,57.1,19.2,57.2,19z
				 M57.4,19.8C57.4,19.8,57.4,19.8,57.4,19.8C57.3,19.8,57.3,19.9,57.4,19.8c-0.1,0.2-0.1,0.4-0.2,0.5c0,0,0,0,0,0
				c0-0.1,0-0.1,0-0.2C57.2,20,57.3,19.9,57.4,19.8z M58.5,19.3C58.5,19.3,58.6,19.3,58.5,19.3c0,0.1,0,0.1-0.1,0.1
				C58.5,19.3,58.5,19.3,58.5,19.3z M59,18.3C59,18.3,59.1,18.3,59,18.3c0-0.1,0-0.1,0.1-0.1C59.1,18.2,59.1,18.2,59,18.3
				C59.1,18.3,59.1,18.3,59,18.3z M58.7,18.1C58.7,18.1,58.7,18.1,58.7,18.1c0-0.1,0.1-0.2,0.1-0.3c0.1-0.1,0-0.2-0.1-0.2
				c0,0,0,0,0,0c0.1,0,0.1,0,0.2,0C58.9,17.7,58.8,17.9,58.7,18.1z M57.8,20.6C57.8,20.6,57.8,20.5,57.8,20.6
				c0.1-0.1,0.1-0.1,0.2-0.2C57.9,20.4,57.9,20.5,57.8,20.6C57.8,20.6,57.8,20.6,57.8,20.6z"/>
		</g>
		<path fill="#00A675" d="M60.8,15.2c-0.2,0.1-0.3,0.3-0.4,0.4c0.1-0.2,0.2-0.4,0.3-0.6c0-0.1,0-0.2-0.1-0.2
			c0.1-0.2,0.3-0.5,0.4-0.7c0.1-0.2-0.2-0.3-0.3-0.2c-0.1,0.2-0.3,0.4-0.4,0.6c0.1-0.2,0.1-0.3,0.2-0.5c0-0.1,0-0.1,0-0.1
			c0,0,0,0,0,0c0,0,0-0.1,0-0.1c0-0.1-0.2-0.3-0.3-0.1c0,0,0,0-0.1,0.1c0.1-0.3,0.3-0.6,0.4-0.8c0.1-0.2-0.1-0.3-0.3-0.2
			c-0.1,0.1-0.2,0.2-0.4,0.4c0-0.1,0.1-0.1,0.1-0.2c0,0,0-0.1,0-0.1c0,0,0.1-0.1,0.1-0.1c0.1-0.1,0-0.3-0.2-0.3
			c-0.4,0.2-0.6,0.5-0.8,0.8c0,0-0.1,0-0.1,0c-0.1,0.1-0.2,0.1-0.3,0.2c0,0,0,0,0,0c0,0,0,0,0,0c-0.2,0.2-0.4,0.3-0.6,0.5
			c0,0-0.1,0-0.1,0c0-0.1,0-0.2,0-0.4c0-0.1-0.2-0.2-0.3-0.1c0,0-0.1,0.1-0.1,0.1c0,0,0-0.1,0-0.1c0.1-0.1,0.1-0.1,0.2-0.2
			c0.2-0.1-0.1-0.4-0.2-0.2c0,0,0,0,0,0c0,0,0-0.1,0-0.1c0-0.1-0.1-0.3-0.2-0.2c0,0-0.1,0-0.1,0.1c0,0,0,0,0,0c0,0,0,0,0,0
			c0-0.1-0.2-0.1-0.3-0.1c-0.2,0.2-0.3,0.4-0.5,0.7c0,0.1,0,0.2,0.1,0.2c0,0.2-0.1,0.3-0.1,0.4c-0.1,0.4-0.2,0.7-0.3,1.1
			c0,0.1-0.1,0.3-0.1,0.4c0,0,0,0.1,0,0.1c0,0.2,0,0.3,0,0.4c0,0.1,0,0.1,0.1,0.2c0.1,0,0.2,0.1,0.3,0.1c-0.1,0.2-0.2,0.3-0.3,0.5
			c-0.1,0.1,0.1,0.3,0.2,0.2c0.2-0.1,0.4-0.2,0.5-0.4c0,0,0.1,0,0.1,0c0,0,0,0,0,0c0,0,0,0,0,0c0.1,0,0.1,0.1,0.2,0
			c0.1-0.1,0.3-0.1,0.4-0.2c-0.1,0.1-0.1,0.2-0.2,0.4c-0.1,0.2,0.2,0.3,0.3,0.2c0,0,0,0,0,0c0,0,0.1,0,0.1-0.1
			c0-0.1,0.1-0.2,0.1-0.2c0,0,0,0,0,0c0.1-0.1,0.1-0.1,0.2-0.2c0,0,0.1,0,0.1,0c-0.1,0.1-0.1,0.2-0.2,0.3c-0.1,0.2,0.1,0.3,0.2,0.2
			c0,0.1,0.2,0.1,0.2,0c0.1-0.2,0.3-0.3,0.4-0.5c0,0,0,0,0,0c0,0,0,0,0,0c0,0,0,0,0.1,0c0,0.1,0,0.2,0,0.3c0,0.1,0.1,0.2,0.2,0.1
			c0,0.1,0.2,0.1,0.3,0c0.2-0.2,0.4-0.5,0.6-0.7c-0.1,0.1-0.1,0.3-0.2,0.4c-0.1,0.2,0.1,0.3,0.3,0.2c0.2-0.2,0.4-0.4,0.6-0.6
			c0.1-0.1,0-0.2-0.1-0.3c0.1-0.2,0.2-0.4,0.3-0.6C61.1,15.2,60.9,15.1,60.8,15.2z M59,14.2C59,14.1,59,14.1,59,14.2
			C59,14.1,59.1,14.1,59,14.2C59.1,14.1,59.1,14.1,59,14.2z M57,15C57,15,57,15,57,15C57,15,57,15,57,15C57,15,57,15,57,15z
			 M59.5,13.9C59.5,13.9,59.5,13.9,59.5,13.9C59.5,13.9,59.5,13.9,59.5,13.9C59.5,13.9,59.5,13.9,59.5,13.9z M57.7,14.2
			C57.7,14.2,57.7,14.2,57.7,14.2C57.7,14.2,57.7,14.2,57.7,14.2C57.7,14.2,57.7,14.2,57.7,14.2z M56.6,15.7c0,0,0,0.1-0.1,0.1
			C56.5,15.8,56.5,15.7,56.6,15.7C56.5,15.7,56.6,15.7,56.6,15.7z M58,15.9C58,15.9,58,15.9,58,15.9C57.9,16,57.9,16,58,15.9
			C57.9,16,57.9,15.9,58,15.9z M60.1,14.8C60.1,14.8,60.1,14.8,60.1,14.8c0,0.1-0.1,0.2-0.2,0.3C60,15,60,14.9,60.1,14.8z M59,15.4
			c0,0,0.1-0.1,0.1-0.1C59,15.4,59,15.4,59,15.4C59,15.5,59,15.4,59,15.4z M58.5,16.2C58.5,16.2,58.5,16.1,58.5,16.2
			C58.5,16.1,58.5,16.2,58.5,16.2C58.5,16.2,58.5,16.2,58.5,16.2z"/>
		<g>
			<path fill="#FFFFFF" d="M59.1,3.2c0.1,0.1,0.1,0.1,0.2,0.2c0,0,0,0.1,0,0.1c0.3,0.3,0.8,0.6,1.2,0.7c0.3,0.1,0.7,0,0.9-0.3
				c-0.1,0-0.1,0-0.2,0c-0.5,0-1,0-1.4-0.3c-0.2-0.1-0.3-0.2-0.5-0.2C59.3,3.2,59.3,3.2,59.1,3.2c0-0.1,0-0.2-0.2-0.2
				C59,3,59.1,3.1,59.1,3.2z"/>
			<path fill="#FFFFFF" d="M56.2,12.5c-0.1,0-0.2,0.1-0.2,0.1c-0.9,0.8-1.1,1.8-0.8,3c0.1,0.3,0.2,0.5,0.6,0.7
				c0-0.2-0.1-0.4-0.1-0.6c-0.1-0.5-0.3-0.9-0.2-1.4c0.1-0.6,0.3-1.1,0.6-1.6C56.1,12.6,56.1,12.5,56.2,12.5
				C56.2,12.5,56.2,12.4,56.2,12.5c0.1-0.1,0.1-0.1,0-0.1C56.2,12.4,56.2,12.4,56.2,12.5z"/>
			<path fill="#FFFFFF" d="M61,16.7c0.1-1-0.2-3.4-0.5-3.9c0,0.1-0.1,0.1-0.1,0.1c0,0.5,0,0.9,0.1,1.4c0.1,0.5,0.2,1.1,0.2,1.6
				c0,0.3-0.1,0.6-0.5,0.9c-0.6,0-1.3,0-1.9,0c-0.3,0-0.6,0-0.9-0.1c-0.2,0-0.5-0.1-0.7-0.2c-0.2-0.1-0.3-0.3-0.3-0.5
				c0-0.2,0-0.4,0.1-0.6c0.3-0.8,0.4-1.7,0.4-2.6c0-0.1,0-0.2,0-0.2c-0.1,0.3-0.2,0.6-0.2,0.9c-0.1,0.5-0.2,1-0.4,1.4
				c-0.2,0.5-0.4,0.9-0.2,1.5c0.3,0.5,0.8,0.6,1.4,0.7c0.6,0,1.1,0.1,1.7,0.1c0.4,0,0.7,0,1.1,0C60.6,17.1,60.8,16.9,61,16.7z"/>
			<path fill="#FFFFFF" d="M60.9,9.4C60.8,9.4,60.8,9.4,60.9,9.4c-0.1,0.1-0.2,0.2-0.2,0.2c-0.4,0.7-0.9,1.2-1.7,1.3
				c-0.6,0.1-1.2,0.1-1.8-0.2c-0.5-0.3-0.9-0.7-1-1.3C56.1,9.3,56,9.2,56,9c-0.1,0.5-0.1,0.9,0.1,1.3c0.3,0.5,0.7,0.7,1.2,0.9
				c0.9,0.3,1.7,0.2,2.5-0.2C60.5,10.7,60.8,10.1,60.9,9.4z"/>
			<path fill="#FFFFFF" d="M58,2.8C58,2.8,58,2.8,58,2.8c0,0.2,0.1,0.4,0.2,0.6c0.4,0.7,1.1,1.1,1.9,1.4c0.6,0.2,1.3,0.3,2,0
				c0.2-0.1,0.3-0.1,0.4-0.4c-0.9,0.2-1.7,0.3-2.5,0C59.1,4.1,58.4,3.6,58,2.8z"/>
			<path fill="#FFFFFF" d="M61.5,12.5C61.5,12.6,61.5,12.6,61.5,12.5c0,0.1,0,0.2,0,0.2c0.3,0.5,0.4,1.1,0.5,1.6
				c0,0.4-0.1,0.8-0.2,1.1c-0.2,0.3-0.3,0.6-0.5,0.9c0,0,0.1,0.1,0.1,0.1c0,0,0.1,0,0.1,0c0.3-0.1,0.5-0.3,0.6-0.6
				c0.1-0.3,0.2-0.6,0.3-0.9c0.1-0.6,0-1.2-0.3-1.7C61.9,12.9,61.7,12.7,61.5,12.5z"/>
			<path fill="#FFFFFF" d="M54.9,4.1c0.4,0.6,1.1,0.5,1.7,0.4c0.6-0.2,1-0.8,0.9-1.5c-0.1,0.4-0.2,0.7-0.5,0.9
				c-0.3,0.2-0.6,0.4-1,0.4C55.6,4.2,55.3,4.1,54.9,4.1z"/>
			<path fill="#FFFFFF" d="M59.1,8.1c-0.2-0.4-0.6-0.7-0.9-0.7c-0.4,0-0.8,0.3-0.9,0.7c0.3-0.2,0.6-0.4,0.9-0.4
				c0.4,0,0.5,0.4,0.8,0.5C59,8.1,59.1,8.1,59.1,8.1z"/>
			<path fill="#FFFFFF" d="M60.6,6.5C60.6,6.5,60.6,6.5,60.6,6.5c0.3-0.1,0.5-0.1,0.7,0.1c0.1,0.1,0.3,0.2,0.4-0.1
				c-0.2-0.4-0.5-0.4-1-0.3C60.6,6.3,60.6,6.4,60.6,6.5z"/>
			<path fill="#FFFFFF" d="M57,6.2c-0.3-0.4-0.6-0.5-0.9-0.3C56,6.1,55.9,6.2,56,6.2C56.4,6.2,56.7,6.2,57,6.2z"/>
			<path fill="#FFFFFF" d="M56.9,2.7C56.9,2.7,56.9,2.7,56.9,2.7c0.1,0,0.1,0,0.2,0c0,0,0,0,0,0C57.1,2.7,57,2.7,56.9,2.7z"/>
			<path d="M52.8,8c-0.3,0-0.7-0.1-0.8-0.5c-0.1-0.3,0.1-0.6,0.3-0.8c0.1,0,0.3,0,0.4,0c0.3-1.4,0.9-2.5,2.1-3.3
				c0.5-0.4,1.1-0.7,1.8-0.7c-0.4,0.2-0.9,0.3-1.3,0.6c0.5,0.1,0.9-0.2,1.3-0.3c-0.1,0.5-0.6,0.7-1.6,0.5c-0.9,0.7-1.5,1.6-1.8,2.8
				c-0.3,1.1-0.1,2,0.4,3c0.6,1.3,1.6,2.1,2.9,2.5c1,0.4,2,0.5,3,0.3c1.5-0.2,2.8-0.8,3.8-2c0.7-0.8,1-1.7,0.9-2.8
				C64.2,6,63.4,5,62.5,4c-0.2-0.2-0.4-0.4-0.7-0.6c-0.5,0.2-1,0.2-1.4-0.1c-0.2-0.1-0.3-0.3-0.4-0.4c0.4,0.3,0.8,0.4,1.4,0.3
				c0-0.1-0.1-0.2-0.1-0.3c0,0,0,0,0.1,0c0.6,0.2,1.1,0.6,1.6,1c0.7,0.6,1.2,1.4,1.5,2.3c0.1,0.5,0.2,1,0.3,1.4
				c0.2,0,0.4-0.1,0.6-0.1c0.1,0,0.2,0.1,0.3,0.2c0.2,0.2,0.1,0.4-0.3,0.7c-0.4,0.1-0.4,0.1-0.7-0.1c-0.8,2.6-2.7,3.7-5.2,4.1
				c0,0.7-0.3,1.1-0.9,1.3c-0.2,0.1-0.6-0.1-0.8-0.3c-0.2-0.3-0.2-0.5-0.1-0.7c0.1,0.2,0.2,0.5,0.3,0.7c0.3,0,0.5,0,0.6,0
				c0.3-0.2,0.5-0.5,0.6-0.9c-0.2,0-0.4,0-0.5,0c-1.5-0.1-2.9-0.5-4-1.5c-0.8-0.7-1.3-1.5-1.6-2.4C52.9,8.5,52.8,8.3,52.8,8z
				 M64.6,8c0,0.1-0.1,0.2-0.1,0.4c0.3,0,0.5-0.1,0.7-0.1C65.2,7.9,65.1,7.8,64.6,8z M52.8,7.6c-0.1-0.2,0.1-0.4-0.1-0.6
				c-0.3,0.2-0.3,0.2-0.2,0.6C52.5,7.6,52.6,7.6,52.8,7.6z"/>
			<path d="M55.4,21.8c-0.3-0.4-0.3-0.6-0.1-0.8c0.2-0.3,0.5-0.3,1-0.1c-0.4,0-0.7,0-0.8,0.4c0.3,0.4,0.5,0.4,1.5,0c0,0,0-0.1,0-0.1
				c-0.4-0.2-0.4-0.5-0.4-0.9c0-0.8,0-1.7,0.1-2.5c0-0.2,0.1-0.4,0.2-0.6c0,0.1,0,0.2,0,0.2c0,1,0,2,0.1,3c0,0.4,0.1,0.5,0.5,0.5
				c0.2,0,0.4,0,0.6,0c0.3-0.4,0.2-0.9,0.4-1.2c0.2-0.2,0.4-0.1,0.6,0c0,0.1,0.1,0.2,0.1,0.2c0,0.2,0,0.4,0,0.6
				c0,0.2,0.2,0.3,0.4,0.3c0.2,0,0.4,0,0.7-0.1c0.2,0,0.3-0.2,0.3-0.3c0-1,0-1.9-0.2-2.9c0-0.1,0-0.3,0-0.4c0.3,0.1,0.4,0.3,0.4,0.5
				c0.1,1.1,0.2,2.1,0,3.2c0.2,0.1,0.4,0.1,0.5,0.2c0.3,0.1,0.4,0.4,0.4,0.6c0,0.2-0.3,0.4-0.5,0.5c-0.6,0.1-1-0.1-1.5-0.4
				c-0.1-0.1-0.2-0.3-0.3-0.5c0,0-0.1,0-0.2-0.1c-0.3-0.4-0.1-0.8-0.2-1.2c-0.3,0.1-0.2,0.3-0.2,0.4c0,0.3,0,0.7-0.3,0.9
				c-0.2,0-0.4,0-0.5,0C56.9,22,56.2,22,55.4,21.8z M61.2,21.6c-0.1-0.1-0.2-0.2-0.3-0.2c-0.3-0.1-0.6-0.1-0.8-0.1
				c-0.2,0-0.4,0-0.6,0C59.8,21.9,60.8,22.1,61.2,21.6z"/>
			<path d="M61,16.7c-0.2,0.3-0.4,0.5-0.8,0.5c-0.4,0-0.7,0-1.1,0c-0.6,0-1.1,0-1.7-0.1c-0.6,0-1.1-0.2-1.4-0.7
				c-0.2-0.6,0.1-1,0.2-1.5c0.2-0.5,0.3-0.9,0.4-1.4c0.1-0.3,0.1-0.6,0.2-0.9c0,0.1,0,0.2,0,0.2c0,0.9-0.1,1.7-0.4,2.6
				c-0.1,0.2-0.1,0.4-0.1,0.6c0,0.2,0.1,0.4,0.3,0.5c0.2,0.1,0.4,0.2,0.7,0.2c0.3,0,0.6,0.1,0.9,0.1c0.7,0,1.4,0,1.9,0
				c0.4-0.2,0.6-0.5,0.5-0.9c-0.1-0.5-0.2-1.1-0.2-1.6c-0.1-0.5-0.1-0.9-0.1-1.4c0,0,0.1-0.1,0.1-0.1C60.8,13.3,61.1,15.7,61,16.7z"
				/>
			<path d="M60.9,9.4c0,0.7-0.4,1.2-1,1.6c-0.8,0.4-1.7,0.5-2.5,0.2c-0.5-0.2-0.9-0.4-1.2-0.9C55.9,9.9,55.9,9.5,56,9
				c0,0.2,0.1,0.3,0.1,0.5c0.1,0.6,0.5,1,1,1.3c0.6,0.3,1.2,0.4,1.8,0.2c0.8-0.2,1.3-0.6,1.7-1.3C60.7,9.6,60.7,9.5,60.9,9.4
				C60.8,9.4,60.8,9.4,60.9,9.4z"/>
			<path d="M58,2.8c0.4,0.8,1.1,1.3,1.9,1.6c0.8,0.3,1.6,0.2,2.5,0c-0.1,0.3-0.2,0.3-0.4,0.4c-0.7,0.3-1.3,0.2-2,0
				c-0.8-0.3-1.4-0.7-1.9-1.4C58.1,3.3,58,3,58,2.8C58,2.8,58,2.8,58,2.8z"/>
			<path d="M61.5,12.5c0.2,0.2,0.4,0.4,0.5,0.7c0.3,0.5,0.4,1.1,0.3,1.7c0,0.3-0.1,0.6-0.3,0.9c-0.1,0.3-0.3,0.5-0.6,0.6
				c0,0-0.1,0-0.1,0c0,0,0,0-0.1-0.1c0.2-0.3,0.3-0.6,0.5-0.9c0.2-0.3,0.3-0.7,0.2-1.1c-0.1-0.6-0.2-1.1-0.5-1.6
				C61.5,12.7,61.5,12.6,61.5,12.5C61.5,12.6,61.5,12.6,61.5,12.5z"/>
			<path d="M56.2,12.5c0,0.1-0.1,0.2-0.1,0.2c-0.4,0.5-0.6,1-0.6,1.6c-0.1,0.5,0.1,0.9,0.2,1.4c0.1,0.2,0.1,0.4,0.1,0.6
				c-0.4-0.1-0.5-0.4-0.6-0.7c-0.3-1.1-0.1-2.2,0.8-3C56,12.5,56.1,12.5,56.2,12.5L56.2,12.5z"/>
			<path d="M54.9,4.1c0.4,0.1,0.7,0.2,1,0.2c0.4,0,0.7-0.2,1-0.4c0.3-0.2,0.4-0.5,0.5-0.9c0.1,0.6-0.3,1.2-0.9,1.5
				C56.1,4.6,55.3,4.6,54.9,4.1z"/>
			<path d="M59.4,3.4c0.2,0.1,0.3,0.2,0.5,0.2c0.4,0.2,0.9,0.2,1.4,0.3c0.1,0,0.1,0,0.2,0c-0.2,0.3-0.5,0.4-0.9,0.3
				c-0.5-0.1-0.9-0.4-1.2-0.7C59.4,3.5,59.4,3.4,59.4,3.4L59.4,3.4z"/>
			<path d="M59.1,8.1c0,0-0.1,0.1-0.1,0.1c-0.3-0.1-0.4-0.5-0.8-0.5c-0.3,0-0.6,0.2-0.9,0.4c0.1-0.4,0.5-0.7,0.9-0.7
				C58.5,7.3,58.9,7.6,59.1,8.1z"/>
			<path d="M60.6,6.5c0-0.1,0.1-0.2,0.1-0.3c0.5-0.1,0.7-0.1,1,0.3c-0.1,0.2-0.3,0.1-0.4,0.1C61,6.4,60.8,6.4,60.6,6.5
				C60.6,6.5,60.6,6.5,60.6,6.5z"/>
			<path d="M57,6.2c-0.4,0-0.7,0-1,0C55.9,6.2,56,6.1,56.1,6C56.4,5.8,56.7,5.9,57,6.2z"/>
			<path d="M59.1,3.2C59.1,3.1,59,3,58.9,3C59.1,3,59.2,3,59.1,3.2L59.1,3.2z"/>
			<path d="M59.1,3.2c0.1,0,0.2,0.1,0.2,0.2l0,0C59.3,3.3,59.2,3.3,59.1,3.2L59.1,3.2z"/>
			<path d="M56.2,12.5c0,0,0-0.1,0-0.1C56.2,12.4,56.2,12.4,56.2,12.5C56.2,12.4,56.2,12.5,56.2,12.5L56.2,12.5z"/>
		</g>
	</g>
	<g>
		<path fill="#F6B7D2" d="M42.1,17.3C42.1,17.3,42.1,17.3,42.1,17.3c-0.1-0.2-0.1-0.2-0.2-0.1c0,0,0,0,0,0c0,0-0.1,0-0.1,0
			c0,0,0,0,0-0.1c0-0.1-0.1-0.1-0.2-0.1c0,0,0,0-0.1,0.1c0-0.1-0.2-0.1-0.2,0c0,0.1,0,0.1,0,0.2c0,0.1,0.1,0.1,0.2,0.1
			c0,0,0.1-0.1,0.1-0.1c0,0.1,0,0.2,0,0.2c0,0.1,0.1,0.1,0.2,0.1c0,0,0.1,0,0.1,0c0,0,0.1-0.1,0.1-0.1c0,0,0,0.1,0,0.1
			c0,0.1,0,0.1,0.1,0.1c0,0,0,0,0,0c0,0,0,0.1,0.1,0.1c0,0,0.1,0,0.1,0c0.1-0.1,0.1-0.3,0.1-0.4C42.3,17.3,42.2,17.3,42.1,17.3z"/>
		<path fill="#F6B7D2" d="M47.5,20.3c0-0.1-0.1-0.1-0.2,0c0,0-0.1,0-0.1,0.1c0,0,0,0,0,0c0,0,0-0.1,0-0.1c0-0.1-0.1-0.1-0.1-0.1
			c0,0,0,0,0,0c0-0.1-0.1-0.1-0.2,0c0-0.1-0.2-0.1-0.2,0c0,0.1,0,0.2,0,0.3c0,0.1,0.1,0.1,0.1,0.1c0,0.1,0.1,0.1,0.1,0.1
			c0,0,0,0.1,0,0.1c0,0.1,0.1,0.1,0.2,0c0,0,0,0,0,0c0,0,0,0,0,0.1c0,0.1,0.1,0.1,0.1,0.1c0,0.1,0.2,0,0.2-0.1
			C47.5,20.6,47.5,20.5,47.5,20.3z"/>
		<path fill="#EC1C24" d="M48.2,6.4C48.2,6.4,48.2,6.4,48.2,6.4c0-0.2-0.3-0.2-0.3,0c0,0.1,0,0.1,0,0.2c0,0,0,0,0,0
			c0-0.2-0.3-0.2-0.3,0c0,0,0,0.1,0,0.1c-0.1-0.1-0.2-0.1-0.3,0.1c0,0.1,0,0.2,0,0.3c0,0.1,0.1,0.1,0.1,0.2c0,0,0.1,0.1,0.1,0.1
			c0,0,0,0.1,0,0.1c0,0.2,0.2,0.2,0.3,0.1c0.1,0,0.2,0,0.2-0.1c0.1,0.1,0.2,0,0.3-0.1c0-0.2,0.1-0.5,0.1-0.7
			C48.2,6.5,48.2,6.4,48.2,6.4z"/>
		<path fill="#EC1C24" d="M45.7,6.6C45.7,6.6,45.7,6.6,45.7,6.6c-0.1-0.2-0.2-0.2-0.3-0.1c-0.1-0.1-0.3-0.1-0.3,0
			C45,6.7,44.9,7,44.9,7.3c0,0.2,0.2,0.2,0.3,0.1c0,0.1,0,0.1,0,0.2c0,0.2,0.3,0.2,0.3,0c0,0,0-0.1,0-0.1c0.1,0.2,0.3,0.1,0.3-0.1
			c0-0.2,0-0.5,0-0.7C45.9,6.6,45.8,6.6,45.7,6.6z"/>
		<path fill="#EC1C24" d="M46.8,7.1C46.8,7,46.7,7,46.6,7c0,0,0-0.1,0-0.1c0-0.2-0.2-0.2-0.3-0.1c0,0,0,0,0,0c-0.1,0-0.1,0-0.2,0.1
			c0,0.1-0.1,0.1-0.1,0.2c0,0.1-0.1,0.1-0.1,0.2c-0.1,0.2,0.2,0.4,0.3,0.2c0,0,0,0,0,0c0,0.1,0.1,0.2,0.2,0.1c0,0.1,0.2,0.2,0.3,0.1
			C46.9,7.6,47,7.5,47,7.3C47.1,7.2,46.9,7.1,46.8,7.1z"/>
		<path fill="#F6B7D2" d="M47.8,18.2C47.8,18.1,47.8,18.1,47.8,18.2c-0.1,0,0-0.1,0-0.1c0-0.1,0-0.2-0.1-0.2c0,0-0.1,0-0.1-0.1
			c0-0.1,0.1-0.2,0.1-0.2c0.1-0.2-0.2-0.4-0.3-0.2c0,0-0.1,0.1-0.1,0.1c0-0.1-0.2-0.2-0.3,0c-0.2,0.2-0.3,0.4-0.5,0.6
			c0-0.1,0-0.2,0.1-0.3c0-0.1,0-0.2-0.1-0.2c0,0,0,0,0,0c0.1-0.2-0.1-0.4-0.2-0.2c0,0,0,0.1-0.1,0.1c0,0-0.1-0.1-0.2,0
			c0,0-0.1,0.1-0.1,0.1c0,0,0.1-0.1,0.1-0.1c0.1-0.1,0-0.4-0.2-0.3c-0.1,0-0.1,0.1-0.2,0.1c0,0,0-0.1-0.1-0.1
			c0.1-0.1-0.1-0.3-0.2-0.3c-0.1,0-0.2,0.1-0.2,0.1c0,0-0.1,0-0.1,0c-0.1,0-0.2,0-0.3,0.1c0,0,0,0,0,0c0.1-0.1,0-0.4-0.2-0.3
			c-0.3,0.1-0.5,0.3-0.7,0.5c-0.1,0.1,0,0.3,0.2,0.3c0.1,0,0.1,0,0.2,0c0,0,0,0,0.1,0c0,0,0,0,0.1,0c-0.1,0.1,0.1,0.3,0.2,0.2
			c0.1-0.1,0.2-0.1,0.4-0.2c0,0,0,0.1,0,0.1c0,0,0,0.1-0.1,0.1c-0.1,0.1,0.1,0.3,0.2,0.2c0,0,0.1,0,0.1-0.1c0,0.1,0.1,0.2,0.2,0.2
			c0,0-0.1,0.1-0.1,0.1c-0.1,0.1,0,0.4,0.2,0.3c0,0,0,0,0,0c-0.1,0.2,0.1,0.3,0.3,0.2c0.1-0.1,0.2-0.2,0.3-0.3c0,0.1,0,0.1,0,0.2
			c0,0.1,0.2,0.2,0.3,0.1c0,0,0.1,0,0.1-0.1c0,0,0,0,0,0c-0.1,0.2,0.1,0.3,0.3,0.2c0.1-0.1,0.1-0.1,0.2-0.2c0,0,0,0.1,0,0.1
			c0,0.1,0.1,0.2,0.2,0.2c0,0.1,0.1,0.2,0.3,0.1c0.1-0.1,0.2-0.1,0.3-0.2c0.1,0.1,0.2,0.1,0.3,0c0.1-0.2,0.1-0.2,0.2-0.4
			C48,18.2,47.9,18.1,47.8,18.2z"/>
		<path fill="#EE5BA0" d="M47.9,15.3C47.9,15.3,47.9,15.3,47.9,15.3C47.8,15.3,47.8,15.3,47.9,15.3C47.8,15.3,47.8,15.2,47.9,15.3
			c0-0.3-0.3-0.4-0.4-0.2c0,0,0,0,0,0c0,0,0,0,0,0c0,0,0,0,0,0c0,0.1-0.1,0.2-0.1,0.3c0-0.1-0.1-0.1-0.2-0.1c0,0-0.1,0-0.1,0.1
			c-0.1-0.1-0.2-0.1-0.3,0c0,0,0,0,0,0.1c-0.1-0.1-0.2-0.1-0.3,0c0,0,0,0,0,0c0,0,0,0-0.1,0c0,0-0.1,0-0.1,0
			c0.1-0.1-0.1-0.3-0.2-0.2c0,0,0,0,0,0c0-0.1,0-0.1,0-0.2c0-0.1,0.1-0.1,0.1-0.2c0.1-0.2-0.1-0.4-0.3-0.2c-0.1,0.1-0.1,0.2-0.1,0.3
			c-0.1,0.2-0.2,0.3-0.3,0.5c-0.1,0-0.1,0.1-0.1,0.1c-0.2,0.1,0,0.4,0.2,0.3c0,0,0,0,0,0c-0.3,0.2-0.5,0.4-0.7,0.6
			c-0.2,0.1,0,0.4,0.2,0.3c0,0,0,0,0.1,0c0,0,0,0,0.1,0c0.1,0.1,0.2,0.1,0.3,0.1c0,0.1,0.1,0.3,0.3,0.2c0.1,0.1,0.1,0.1,0.2,0.2
			c0,0,0,0.1,0,0.1c0,0.1,0.2,0.2,0.3,0.1c0,0,0.1,0,0.1-0.1c0,0.1,0.2,0.2,0.3,0.1c0,0,0-0.1,0.1-0.1c0,0,0.1,0,0.1,0
			c0,0.1,0.1,0.1,0.2,0.1c0.1,0,0.1-0.1,0.1-0.1c0,0,0.1,0,0.1,0c0,0.1,0.2,0.2,0.3,0.1c0,0,0-0.1,0.1-0.1c0,0,0.1,0,0.1,0
			c0.2-0.1,0.3-0.2,0.3-0.4c0-0.1,0-0.2-0.1-0.2c0,0,0-0.1,0-0.1c0-0.1,0-0.2-0.1-0.2c0-0.1,0.1-0.2,0.1-0.2c0-0.1,0-0.2,0-0.2
			c0.1-0.2,0.2-0.3,0.2-0.5C48.3,15.2,48,15.1,47.9,15.3z M45.6,16.5C45.6,16.5,45.7,16.5,45.6,16.5C45.7,16.5,45.7,16.5,45.6,16.5
			C45.6,16.5,45.6,16.5,45.6,16.5z M46,16.8C46,16.8,46,16.8,46,16.8C46,16.9,46,16.9,46,16.8C46,16.8,46,16.8,46,16.8z"/>
		<g>
			<path fill="#FFFFFF" d="M51,14.5c0.1,0,0.2-0.1,0.2-0.1c0.1-0.2,0.3-0.3,0.3-0.5C51.2,13.9,51.1,14,51,14.5z"/>
			<path fill="#FFFFFF" d="M50.8,14.3c0-0.2,0.1-0.4,0.1-0.6c0,0-0.1,0-0.1,0C50.6,13.9,50.6,13.9,50.8,14.3z"/>
			<path fill="#FFFFFF" d="M51.6,14.3c-0.2,0-0.3,0.1-0.4,0.3C51.5,14.6,51.6,14.6,51.6,14.3z"/>
			<path d="M51,14.5c0.1-0.4,0.3-0.6,0.5-0.6c0,0.2-0.2,0.3-0.3,0.5C51.2,14.4,51.1,14.4,51,14.5z"/>
			<path d="M50.8,14.3c-0.2-0.4-0.2-0.4,0-0.6c0,0,0.1,0,0.1,0C50.9,13.9,50.8,14.1,50.8,14.3z"/>
			<path d="M51.6,14.3c0,0.3-0.1,0.4-0.4,0.3C51.2,14.4,51.4,14.3,51.6,14.3z"/>
			<g>
				<path fill="#FFFFFF" d="M44.8,7.8c-0.1,0-0.1,0-0.2,0c-0.4,0.1-0.7,0.4-1,0.6c-0.5,0.4-0.8,1-0.9,1.7c-0.1,0.3,0,0.7,0,1
					c0,0.5,0.3,0.9,0.7,1.2c0,0,0,0.1,0.1,0.1c0.1,0.5,0.4,0.8,0.7,1.2c0.5,0.5,1.1,0.8,1.9,1c0.8,0.2,1.5,0.1,2.2-0.1
					c0.7-0.2,1.4-0.6,1.8-1.3c0,0,0.1-0.1,0.1-0.1c0.3,0.2,0.5,0.3,0.7,0.2c0.6,0,1.2-0.6,1.3-1.1c-0.1,0-0.1,0-0.2,0.1
					c-0.2,0.1-0.4,0.1-0.6,0c-0.2-0.1-0.2-0.3-0.1-0.5c0.1-0.5,0.2-0.9,0.2-1.4c0-0.2,0-0.5,0-0.7c-0.1-0.5-0.3-0.9-0.7-1.3
					c-0.5-0.6-1.1-0.9-1.8-1.1c-0.2,0-0.3,0-0.6,0c0.4,0.2,0.8,0.3,1.2,0.5c0.5,0.2,0.8,0.5,1.1,0.9c0.2,0.3,0.4,0.7,0.5,1.2
					c0.1,0.6,0,1.2-0.1,1.8c0,0.2-0.1,0.3-0.1,0.5c0,0.4,0.1,0.5,0.5,0.5c0.1,0,0.2,0,0.3,0c-0.2,0.3-0.5,0.5-0.8,0.6
					c-0.3,0.1-0.6,0.1-0.8-0.1c0.1-0.4,0.3-0.7,0.4-1.1c0.2-0.8,0.1-1.5-0.3-2.2c-0.3-0.6-0.8-0.9-1.5-1C48.9,8.8,49,8.9,49,8.9
					c0.6,0.3,1,0.8,1.3,1.4c0.2,0.4,0.2,0.9,0.2,1.3c0,0.5-0.2,0.9-0.4,1.3c-0.7,1-1.7,1.5-2.9,1.7c-0.4,0.1-0.9,0-1.3-0.1
					c-0.5-0.1-0.9-0.3-1.3-0.6c-0.7-0.5-1.2-1.2-1.3-2.2c-0.1-0.9,0.3-1.8,0.8-2.5c0.1-0.2,0.3-0.3,0.4-0.5c0,0,0,0,0,0c0,0,0,0,0,0
					c-0.2,0.2-0.5,0.5-0.7,0.7c-0.4,0.5-0.7,1.1-0.7,1.7c0,0.3,0,0.6,0,0.9c0,0-0.1,0-0.1,0c0,0,0-0.1-0.1-0.1
					c-0.4-0.9-0.4-1.7,0.1-2.6C43.5,8.6,44.1,8.1,44.8,7.8c0.2,0,0.4,0.1,0.5,0.1c0,0,0,0,0,0c-0.5,0.5-0.6,1-0.5,1.7
					c0,0.2,0.1,0.3,0.2,0.4c0.1,0.2,0.3,0.2,0.6,0.2c-0.1-0.1-0.1-0.1-0.2-0.2C45.1,9.7,45,9.3,45,8.9c0-0.4,0.2-0.7,0.5-0.9
					c0.1-0.1,0.2-0.2,0.3-0.4c0,0,0,0,0-0.1c-0.1,0-0.2,0-0.3,0c-0.1,0-0.2,0.1-0.3,0.1c-0.2-0.2-0.1-1,0.1-1.3
					c0.1,0.1,0.2,0.2,0.3,0.3c0.1,0.1,0.2,0.2,0.4,0.2c-0.3-0.2-0.4-0.6-0.7-0.8c-0.1,0-0.1,0-0.1,0c-0.1,0.1-0.2,0.3-0.2,0.4
					C44.8,7,44.8,7.4,44.8,7.8z"/>
				<path fill="#FFFFFF" d="M48.7,12.1c-0.2,0.7-0.5,1.2-1.1,1.5c-0.4,0.1-0.8,0.2-1.2,0c-0.5-0.2-0.9-0.6-1.1-1.1
					c0-0.1-0.1-0.2-0.2-0.3c0.1,1.4,1.3,1.9,2.2,1.7C48.2,13.7,48.9,12.8,48.7,12.1z"/>
				<path fill="#FFFFFF" d="M50.9,14.6c-0.1,0-0.1,0.1-0.1,0.1c-0.1,0.1-0.2,0.3-0.3,0.4c-0.3,0.5-0.9,0.6-1.3,0.3
					c-0.3-0.1-0.5-0.3-0.7-0.5c0.2,0.6,1,0.9,1.5,0.9C50.4,15.7,50.9,15.2,50.9,14.6z"/>
				<path fill="#FFFFFF" d="M45.5,14.8c-0.2,0-0.4,0-0.5,0c-0.5,0-0.9-0.1-1.2-0.6c-0.1-0.2-0.3-0.3-0.4-0.4c0,0-0.1,0-0.2-0.1
					c0,0.3,0.2,0.5,0.4,0.7c0.3,0.3,0.7,0.5,1.1,0.6C44.9,15.2,45.2,15.2,45.5,14.8z"/>
				<path fill="#FFFFFF" d="M47.6,14.8c-0.1,0.1-0.2,0.2-0.3,0.3c-0.4,0.4-0.7,0.4-1.1,0c-0.1-0.1-0.1-0.1-0.1-0.2
					c0,0,0-0.1-0.1-0.1c0,0.4,0.1,0.7,0.5,0.8c0.3,0.1,0.6,0,0.8-0.2C47.5,15.3,47.7,15.2,47.6,14.8z"/>
				<path fill="#FFFFFF" d="M47.7,8.2c-0.2,0.1-0.3,0.2-0.3,0.3c0,0.4,0.2,0.6,0.4,0.9c0.1,0.1,0.3,0.1,0.5,0.1c0-0.1,0-0.2-0.2-0.3
					c-0.3-0.2-0.4-0.4-0.4-0.7C47.7,8.4,47.7,8.3,47.7,8.2z"/>
				<path fill="#FFFFFF" d="M47.4,9.5c-0.1,0-0.1-0.1-0.2-0.1c-0.4-0.2-0.7-0.5-0.6-0.9c0-0.1,0-0.1,0-0.2c-0.2,0.2-0.2,0.7-0.1,1
					C46.7,9.5,47.1,9.6,47.4,9.5z"/>
				<path fill="#FFFFFF" d="M48.3,8.4c-0.2,0-0.1,0.1-0.1,0.2c0,0.3,0.2,0.6,0.4,0.7c0.1,0.1,0.2,0.1,0.3-0.1
					C48.6,9.1,48.4,8.8,48.3,8.4z"/>
				<path fill="#FFFFFF" d="M45.5,10.8c-0.4,0-0.6,0.1-0.6,0.3c0.1,0,0.3-0.1,0.4-0.1c0.1,0,0.3,0.1,0.4,0.1
					C45.8,11,45.8,11,45.5,10.8z"/>
				<path fill="#FFFFFF" d="M48.6,11.1c-0.1-0.3-0.3-0.5-0.5-0.4c-0.1,0-0.3,0.1-0.3,0.2c0.1,0.1,0.3,0,0.4,0
					C48.3,10.9,48.5,11,48.6,11.1z"/>
				<path fill="#FFFFFF" d="M46.4,11.6c0.1,0,0.3-0.1,0.4-0.1c0.1,0,0.3,0.1,0.4,0.1c0-0.3-0.1-0.3-0.4-0.4
					C46.6,11.3,46.5,11.4,46.4,11.6z"/>
				<path fill="#FFFFFF" d="M42.8,13.9c-0.1-0.3-0.3-0.5-0.6-0.4C42.2,13.7,42.6,13.9,42.8,13.9z"/>
				<path fill="#FFFFFF" d="M43,13.6c-0.1-0.4-0.3-0.5-0.5-0.4C42.6,13.4,42.7,13.6,43,13.6z"/>
				<path fill="#FFFFFF" d="M43.3,13.5c0-0.3,0-0.5-0.2-0.7C43,13,43,13,43,13.1C43,13.3,43.1,13.4,43.3,13.5z"/>
				<path d="M44.8,7.8c-0.7,0.3-1.3,0.8-1.6,1.5c-0.4,0.8-0.5,1.7-0.1,2.6c0,0,0,0.1,0.1,0.1c0,0,0,0,0.1,0c0-0.3,0-0.6,0-0.9
					c0-0.7,0.3-1.2,0.7-1.7c0.2-0.3,0.5-0.5,0.7-0.7l0,0c-0.1,0.2-0.3,0.3-0.4,0.5c-0.6,0.8-0.9,1.6-0.8,2.5
					c0.1,0.9,0.5,1.6,1.3,2.2c0.4,0.3,0.8,0.5,1.3,0.6c0.4,0.1,0.9,0.2,1.3,0.1c1.2-0.2,2.2-0.6,2.9-1.7c0.2-0.4,0.4-0.8,0.4-1.3
					c0-0.5,0-0.9-0.2-1.3c-0.3-0.6-0.7-1.1-1.3-1.4c-0.1,0-0.2-0.1-0.2-0.1c0.7,0.1,1.2,0.4,1.5,1c0.4,0.7,0.5,1.5,0.3,2.2
					c-0.1,0.4-0.2,0.7-0.4,1.1c0.2,0.3,0.5,0.2,0.8,0.1c0.3-0.1,0.6-0.3,0.8-0.6c-0.1,0-0.2,0-0.3,0c-0.4,0-0.5-0.2-0.5-0.5
					c0-0.2,0.1-0.3,0.1-0.5c0.1-0.6,0.2-1.2,0.1-1.8c-0.1-0.4-0.2-0.8-0.5-1.2c-0.3-0.4-0.7-0.7-1.1-0.9c-0.4-0.2-0.8-0.3-1.2-0.5
					c0.2,0,0.4,0,0.6,0c0.7,0.2,1.3,0.5,1.8,1.1c0.3,0.4,0.6,0.8,0.7,1.3c0,0.2,0,0.5,0,0.7c-0.1,0.5-0.1,0.9-0.2,1.4
					c0,0.2,0,0.4,0.1,0.5c0.2,0.2,0.4,0.1,0.6,0c0.1,0,0.1,0,0.2-0.1c-0.1,0.5-0.8,1.1-1.3,1.1c-0.2,0-0.3,0-0.7-0.2
					c0,0-0.1,0.1-0.1,0.1c-0.5,0.6-1.1,1-1.8,1.3c-0.7,0.2-1.5,0.3-2.2,0.1c-0.7-0.2-1.3-0.5-1.9-1c-0.3-0.3-0.6-0.7-0.7-1.2
					c0,0,0-0.1-0.1-0.1c-0.4-0.3-0.7-0.7-0.7-1.2c0-0.3,0-0.7,0-1c0.1-0.7,0.4-1.2,0.9-1.7c0.3-0.3,0.6-0.5,1-0.6
					C44.7,7.8,44.7,7.8,44.8,7.8L44.8,7.8z"/>
				<path d="M47.1,19.7c0,0.1,0,0.1,0.1,0.1c0.5,0.2,0.6,0.6,0.5,1.1c0,0-0.1,0.1-0.1,0.1c-0.3,0-0.4-0.1-0.6-0.3
					c-0.2-0.2-0.3-0.3-0.3-0.6c-0.1-0.5,0-0.6,0.4-0.7c0.1,0,0.2-0.1,0.3-0.1c0.1-0.3,0.1-0.3-0.1-0.4c-0.2,0-0.4,0-0.6,0
					c-0.5,0-0.9-0.3-1.3-0.6c-0.4-0.3-0.8-0.5-1.1-0.8c-0.1-0.1-0.3-0.1-0.4-0.2c-0.1,0-0.2-0.1-0.3-0.1c0,0,0,0,0-0.1
					c0.4-0.1,0.7-0.3,1.1-0.4c-0.1,0.2-0.3,0.3-0.5,0.4c0,0,0,0.1,0.1,0.1c0.5,0.2,0.9,0.6,1.3,0.9c0.4,0.2,0.8,0.5,1.2,0.5
					c0.4,0,0.8-0.1,1.2-0.2c-0.1-0.4-0.2-0.7-0.4-1c-0.1,0-0.2,0-0.3,0c-0.2,0-0.3,0.1-0.5,0c-0.5,0-1-0.2-1.4-0.6
					c-0.2-0.2-0.4-0.4-0.8-0.3c0,0,0,0-0.1-0.1c0.4-0.6,1-1.2,1.2-1.9c-0.1,0.7-0.4,1.2-0.8,1.7c0.4,0.2,0.7,0.5,1,0.7
					c0.4,0.2,0.9,0.3,1.4,0.1c0.1-0.1,0.3-0.1,0.4-0.2c0-0.1,0-0.1,0-0.2c-0.2-0.5-0.1-0.9-0.1-1.4c0-0.2,0-0.4,0.1-0.6
					c0,0.1,0.1,0.3,0,0.4c-0.1,0.5,0,0.9,0.1,1.4c0,0.1,0,0.2,0,0.4c-0.1,0.1-0.2,0.2-0.3,0.3c0.2,0.4,0.4,0.7,0.6,1.1
					c-0.2,0.2-0.6,0.1-0.8,0.3c0.1,0.1,0.1,0.1,0.2,0.2c0,0.1,0,0.2,0,0.3C47.6,19.6,47.3,19.7,47.1,19.7z M47.5,20.7
					c0.1-0.3-0.3-0.7-0.6-0.7C46.9,20.4,47.2,20.7,47.5,20.7z"/>
				<path d="M45.9,7.6c-0.1-0.6,0.2-0.9,1-0.8c0.4-0.3,0.8-0.6,1.3-1c0,0.1,0.1,0.2,0.1,0.3c0,0.4,0.1,0.8,0.1,1.1
					c0,0.2,0,0.3-0.1,0.4c-0.4,0.1-0.7-0.1-1.1-0.2c-0.2,0.3-0.4,0.5-0.8,0.4c-0.6,0.7-0.4,1.4,0.2,2c-0.3,0-0.6-0.3-0.7-0.7
					c-0.1-0.5,0-0.9,0.4-1.3C46.1,7.8,46,7.7,45.9,7.6z M48,6.2c-0.4,0.2-0.7,0.4-1,0.6C47,7,47.1,7.2,47.1,7.3
					c0.3,0,0.6,0.1,0.9,0.1C48,7,48,6.6,48,6.2z M46,7.1c0,0.1,0,0.2,0,0.4c0.2,0.3,0.5,0.3,0.7,0.1c0.2-0.2,0.2-0.4,0-0.6
					C46.6,6.8,46.3,6.9,46,7.1z"/>
				<path d="M44.8,7.8c0-0.4,0-0.8,0-1.2c0-0.1,0.1-0.3,0.2-0.4c0,0,0,0,0.1,0c0.3,0.1,0.4,0.6,0.7,0.8c-0.2,0-0.3-0.1-0.4-0.2
					c-0.1-0.1-0.2-0.2-0.3-0.3c-0.2,0.2-0.2,1-0.1,1.3c0.1,0,0.2-0.1,0.3-0.1c0.1,0,0.2,0,0.3,0c0,0,0,0,0,0.1
					c-0.1,0.1-0.2,0.3-0.3,0.4c-0.3,0.3-0.4,0.6-0.5,0.9C45,9.3,45.1,9.7,45.4,10c0.1,0.1,0.1,0.1,0.2,0.2c-0.3,0.1-0.4,0-0.6-0.2
					c-0.1-0.1-0.2-0.3-0.2-0.4c-0.1-0.6,0-1.2,0.5-1.7c0,0,0,0,0,0C45.2,7.9,45,7.8,44.8,7.8L44.8,7.8z"/>
				<path d="M48.7,12.1c0.2,0.6-0.5,1.6-1.4,1.8c-0.8,0.2-2.1-0.4-2.2-1.7c0.1,0.1,0.1,0.2,0.2,0.3c0.2,0.5,0.6,0.9,1.1,1.1
					c0.4,0.2,0.8,0.1,1.2,0C48.2,13.3,48.5,12.8,48.7,12.1z"/>
				<path d="M44.1,17.8c-0.3,0-0.6,0-0.8,0.1c-0.3,0-0.5,0.1-0.8,0.1c-0.1,0-0.3,0-0.5-0.1c-0.2,0-0.4-0.1-0.6-0.3
					c-0.2-0.3-0.3-0.4,0-0.7c0.5-0.1,0.9,0.1,1.2,0.9C43,17.8,43.5,17.8,44.1,17.8C44.1,17.8,44.1,17.8,44.1,17.8z M41.4,17.5
					c0.2,0.3,0.5,0.3,0.8,0.3c0-0.4-0.3-0.6-0.6-0.8c-0.1,0-0.1,0.1-0.2,0.2C41.4,17.3,41.4,17.4,41.4,17.5z"/>
				<path d="M50.9,14.6c0,0.6-0.5,1.1-1,1.2c-0.5,0.1-1.3-0.3-1.5-0.9c0.2,0.2,0.4,0.4,0.7,0.5c0.5,0.2,1,0.2,1.3-0.3
					c0.1-0.2,0.2-0.3,0.3-0.4C50.8,14.6,50.9,14.6,50.9,14.6z"/>
				<path d="M45.5,14.8c-0.2,0.3-0.6,0.3-0.9,0.3c-0.4-0.1-0.8-0.3-1.1-0.6c-0.2-0.2-0.3-0.4-0.4-0.7c0.1,0,0.2,0,0.2,0.1
					c0.1,0.1,0.3,0.3,0.4,0.4c0.3,0.4,0.7,0.6,1.2,0.6C45.1,14.9,45.3,14.9,45.5,14.8z"/>
				<path d="M47.6,14.8c0.1,0.3-0.1,0.5-0.2,0.6c-0.2,0.2-0.5,0.3-0.8,0.2c-0.4-0.2-0.5-0.5-0.5-0.8c0,0,0,0.1,0.1,0.1
					c0,0.1,0.1,0.2,0.1,0.2c0.4,0.5,0.7,0.5,1.1,0C47.4,15.1,47.5,15,47.6,14.8z"/>
				<path d="M47.7,8.2c0,0.1,0,0.3,0,0.4c0,0.3,0.2,0.5,0.4,0.7c0.2,0.1,0.2,0.1,0.2,0.3c-0.2,0.1-0.3,0-0.5-0.1
					c-0.3-0.2-0.4-0.5-0.4-0.9C47.4,8.4,47.5,8.3,47.7,8.2z"/>
				<path d="M47.4,9.5c-0.4,0.1-0.7,0-0.9-0.3c-0.2-0.2-0.1-0.7,0.1-1c0,0.1,0,0.2,0,0.2c-0.1,0.5,0.2,0.8,0.6,0.9
					C47.3,9.4,47.4,9.5,47.4,9.5z"/>
				<path d="M48.3,8.4c0,0.4,0.3,0.7,0.7,0.9c-0.1,0.1-0.2,0.1-0.3,0.1c-0.3-0.1-0.4-0.4-0.4-0.7C48.2,8.5,48.2,8.4,48.3,8.4z"/>
				<path d="M45.5,10.8c0.3,0.2,0.3,0.2,0.2,0.3c-0.1,0-0.3-0.1-0.4-0.1c-0.1,0-0.3,0.1-0.4,0.1C44.9,10.9,45.1,10.8,45.5,10.8z"/>
				<path d="M48.6,11.1c-0.1-0.1-0.3-0.1-0.4-0.2c-0.1-0.1-0.3,0.1-0.4,0c0-0.2,0.2-0.2,0.3-0.2C48.3,10.6,48.5,10.8,48.6,11.1z"/>
				<path d="M46.4,11.6c0-0.2,0.2-0.3,0.4-0.3c0.3,0,0.4,0.1,0.4,0.4c-0.1-0.1-0.3-0.1-0.4-0.1C46.7,11.5,46.6,11.6,46.4,11.6z"/>
				<path d="M42.8,13.9c-0.2,0-0.5-0.2-0.6-0.4C42.5,13.4,42.7,13.6,42.8,13.9z"/>
				<path d="M43,13.6c-0.3,0-0.4-0.2-0.5-0.4C42.7,13.1,42.9,13.3,43,13.6z"/>
				<path d="M43.3,13.5c-0.2-0.1-0.3-0.3-0.3-0.4c0-0.1,0-0.1,0.1-0.2C43.3,13.1,43.3,13.3,43.3,13.5z"/>
				<path d="M44.6,8.7C44.6,8.6,44.6,8.6,44.6,8.7C44.6,8.6,44.6,8.6,44.6,8.7L44.6,8.7z"/>
			</g>
		</g>
	</g>
	<g>
		<g>
			<path fill="#231F20" d="M40.7,13c0,2.4-1.5,4.5-3.9,5.2c-2.2,0.6-4.6-0.2-5.9-2c-1.2-1.7-1.4-4-0.4-5.9c1.2-2.2,3.8-3.3,6.2-2.6
				C39.1,8.5,40.6,10.6,40.7,13c0,0.1,0.2,0,0.2-0.1c0-2.5-1.6-4.6-4-5.3C34.8,7,32.4,7.7,31,9.4c-1.6,1.8-1.8,4.6-0.5,6.6
				c1.3,2,3.8,3,6.1,2.4c2.5-0.7,4.2-2.9,4.2-5.4C40.9,12.9,40.7,13,40.7,13z"/>
		</g>
		<g>
			<path fill="#FFFFFF" d="M31.2,17.5c0.9-0.1,1.9-1.9,1.9-1.9c2.2-3.3,4.2-7.5,4.2-7.5l0.3-0.7c-0.7-0.3-1.5-0.5-2.4-0.5
				c-3.4,0-6.1,2.7-6.1,6.1C29.2,14.8,30,16.4,31.2,17.5z"/>
			<g>
				<path fill="#231F20" d="M31.3,17.6c0.8-0.2,1.4-1.1,1.8-1.8c0.7-1.2,1.5-2.3,2.1-3.5c0.9-1.6,1.8-3.2,2.5-4.8
					c0-0.1,0-0.1-0.1-0.1c-2.7-1.1-5.9-0.2-7.5,2.2c-1.7,2.5-1.2,5.9,1,8c0.1,0.1,0.3,0,0.1-0.1c-3.4-3.2-2-9.1,2.7-10.3
					c0.5-0.1,1-0.2,1.6-0.2c0.4,0,0.7,0,1.1,0.1c0.2,0,1,0.2,1,0.2c0.1,0.1-0.4,0.8-0.5,1c-0.8,1.5-1.6,3-2.4,4.5
					c-0.5,0.9-1.1,1.9-1.7,2.8c-0.4,0.7-1,1.6-1.8,1.8C31,17.4,31.2,17.6,31.3,17.6z"/>
			</g>
		</g>
		<g>
			<path fill="#FFFFFF" d="M38.5,8.1c0,0-0.3,1.9-0.5,5.7c-0.1,2.5-0.3,3.9-0.5,4.7c2.2-0.9,3.7-3.1,3.7-5.5c0-2.1-1.1-3.9-2.7-5
				L38.5,8.1z"/>
			<g>
				<path fill="#231F20" d="M38.4,8c-0.5,3.4-0.2,7-0.9,10.4c0,0,0.1,0.2,0.1,0.2c2.2-1,3.6-3.1,3.7-5.5c0-2.1-1.1-4.1-2.8-5.3
					c0,0,0,0-0.1,0C38.5,7.9,38.4,8,38.4,8c0,0.1,0.1,0.2,0.2,0.2c0.1-0.3,1,0.7,1.2,0.8c0.5,0.6,0.9,1.2,1.1,1.9
					c0.4,1.1,0.4,2.2,0.1,3.3c-0.4,1.9-1.8,3.4-3.5,4.1c0,0.1,0.1,0.1,0.1,0.2c0.7-3.4,0.5-6.9,0.9-10.4C38.6,8.1,38.4,8,38.4,8z"/>
			</g>
		</g>
		<radialGradient id="SVGID_9_" cx="33.2309" cy="12.3426" r="4.6126" gradientUnits="userSpaceOnUse">
			<stop  offset="0.136" style="stop-color:#394A4B"/>
			<stop  offset="1" style="stop-color:#2E3D41"/>
		</radialGradient>
		<path fill="url(#SVGID_9_)" d="M37,8.6c0-0.1,0-0.3,0-0.4c0-0.1,0-0.1-0.1-0.1c0-0.2-0.3-0.2-0.4-0.1c0-0.1,0-0.1,0-0.2
			c0-0.2-0.4-0.2-0.5,0c0,0,0,0-0.1,0c0.1-0.1,0.2-0.1,0.2-0.2c0.1-0.1,0-0.2-0.1-0.2c-0.1-0.1-0.3-0.1-0.5-0.2c0,0,0-0.1,0-0.1
			c0-0.2-0.4-0.3-0.5-0.1c0,0.1,0,0.1-0.1,0.2c-0.5,0-1,0.1-1.5,0.3c0-0.1,0-0.2,0.1-0.3c0-0.2-0.4-0.3-0.5,0
			c-0.1,0.2-0.1,0.4-0.1,0.6c-0.1,0-0.2,0.1-0.3,0.1c0-0.1,0-0.3,0-0.4c0-0.2-0.3-0.2-0.5-0.1c0,0,0,0,0,0.1c-0.1,0-0.3,0-0.3,0.1
			c0,0.1,0,0.2,0,0.3c-0.2,0.3-0.3,0.6-0.5,0.9c0,0-0.1,0-0.1,0.1c0,0.1-0.1,0.1-0.1,0.2c-0.1,0-0.1,0.1-0.2,0.1c0,0,0,0.1,0,0.1
			c-0.1,0.1-0.2,0.3-0.3,0.4c0,0,0,0,0,0c-0.1,0-0.3,0-0.3,0.1c0,0,0,0,0,0.1c-0.1,0-0.2,0-0.3,0.1c0,0.3-0.1,0.6-0.1,0.9
			c0,0.1-0.1,0.2-0.1,0.3c0,0.1-0.1,0.1-0.1,0.2c0-0.2,0-0.4,0-0.6c0-0.2-0.5-0.3-0.5,0c0,1.2,0,2.4-0.1,3.5c0,0.1,0,0.1,0.1,0.1
			c0,0.1,0,0.1,0,0.2c0,0.2,0.3,0.2,0.4,0.1c0,0.4,0,0.7,0,1.1c0,0.1,0.2,0.2,0.3,0.2c0,0.2,0,0.3,0,0.5c0,0.2,0.5,0.3,0.5,0
			c0,0,0,0,0,0c0.1,0,0.1,0,0.2-0.1c0,0.3,0,0.6,0,0.9c0,0.2,0.4,0.3,0.5,0c0,0,0,0,0-0.1c0.1,0,0.1,0,0.2-0.1c0,0.2,0.4,0.3,0.5,0
			c0-0.1,0-0.2,0.1-0.2c0.1,0.1,0.4,0.1,0.4-0.1c0.1-0.3,0.1-0.5,0.2-0.8c0.1,0.1,0.3,0.1,0.4-0.1c0-0.2,0.1-0.4,0.1-0.5
			c0.1,0,0.3,0,0.3-0.1c0-0.1,0-0.3,0-0.4c0,0,0.1,0,0.1,0c0,0,0.1,0,0.1-0.1c0.1,0,0.1,0,0.1-0.1c0.2-0.2,0.4-0.5,0.5-0.8
			c0.1,0,0.1-0.1,0.2-0.1c0-0.1,0-0.3,0-0.4c0.1-0.2,0.1-0.4,0.1-0.6c0.1,0,0.1-0.1,0.1-0.1c0-0.3,0.1-0.7,0.1-1c0,0.1,0,0.2,0,0.4
			c0,0.2,0.4,0.3,0.5,0c0-0.4,0.1-0.7,0.1-1.1c0.1,0.2,0.4,0.2,0.5,0c0-0.3,0.1-0.5,0.1-0.8c0.1,0,0.2,0,0.2-0.1c0-0.1,0-0.2,0-0.2
			c0.1,0.1,0.4,0.1,0.4-0.1c0.1-0.3,0.1-0.5,0.2-0.8C36.9,8.8,37,8.7,37,8.6z M30,11.5c0,0,0,0.1,0,0.1c0,0.1,0,0.1,0,0.2
			C30,11.6,30,11.5,30,11.5C30,11.5,30,11.5,30,11.5z M32.1,14.1c0-0.1,0-0.3,0-0.4c0,0,0-0.1,0-0.1C32.1,13.8,32.1,14,32.1,14.1
			C32.1,14.2,32.1,14.2,32.1,14.1C32.1,14.2,32.1,14.2,32.1,14.1C32.1,14.2,32.1,14.1,32.1,14.1z M34,9.4C34,9.4,34,9.4,34,9.4
			c0-0.1,0-0.2,0-0.2c0,0,0,0,0,0C34,9.3,34,9.3,34,9.4z M34,8.8c0,0,0-0.1,0-0.1C34,8.7,34,8.8,34,8.8C34,8.8,34,8.8,34,8.8
			C34,8.8,34,8.8,34,8.8z M34,8.6C34,8.5,34,8.5,34,8.6C34,8.5,34,8.5,34,8.6C34,8.5,34,8.5,34,8.6z M33.2,8.7c0,0.1,0,0.1,0.1,0.1
			c0,0,0,0.1,0,0.1c0,0-0.1,0-0.1,0c0,0-0.1,0-0.1-0.1C33.1,8.8,33.1,8.8,33.2,8.7C33.2,8.7,33.2,8.7,33.2,8.7z M34.8,7.6
			c0,0-0.1,0-0.1,0c0,0,0,0,0,0c0-0.1,0-0.1-0.1-0.1c0.1,0,0.3,0,0.4,0C34.9,7.4,34.9,7.5,34.8,7.6z M35.3,8.4c0,0,0-0.1,0-0.1
			c0,0,0,0,0-0.1c0-0.1,0.1-0.1,0.1-0.2C35.3,8.2,35.3,8.3,35.3,8.4z"/>
		<radialGradient id="SVGID_10_" cx="39.4391" cy="13.2541" r="3.6102" gradientUnits="userSpaceOnUse">
			<stop  offset="0" style="stop-color:#629953"/>
			<stop  offset="1" style="stop-color:#468F42"/>
		</radialGradient>
		<path fill="url(#SVGID_10_)" d="M40.9,14.1c0.1-0.5,0.2-1,0.2-1.6c0,0,0,0,0-0.1c0,0,0,0,0,0c0,0,0,0,0,0c0,0,0,0,0,0
			c0,0-0.2-0.1-0.2-0.1c0,0,0,0,0,0c0,0,0,0-0.1,0c0,0,0-0.1,0-0.1c0.1-0.2,0.2-0.3,0.2-0.5c0,0-0.2-0.1-0.2-0.1c0,0,0,0.1,0,0.1
			c0-0.1,0-0.3,0-0.4c0,0,0,0-0.1,0c0-0.3,0-0.7-0.1-1c0,0-0.2-0.1-0.2-0.1c0,0.1-0.1,0.2-0.1,0.3c0-0.2,0-0.4-0.1-0.6
			c0,0-0.2-0.1-0.2-0.1c0,0,0,0,0,0c0,0-0.1-0.1-0.2-0.1c0-0.1,0-0.1,0-0.2c0,0,0-0.1-0.1-0.1c0,0,0,0,0,0c0,0,0,0,0,0
			c0-0.1,0-0.1,0-0.2c0-0.1-0.2-0.1-0.2-0.1c0-0.1,0.1-0.2,0.1-0.3c0,0-0.2-0.1-0.2-0.1c-0.1,0.1-0.1,0.2-0.2,0.4c0,0,0-0.1,0-0.1
			c0-0.1-0.2-0.1-0.2-0.1c0,0,0.1-0.1,0.1-0.1c0-0.1-0.2-0.1-0.2-0.1c0,0,0,0,0,0.1c0,0,0,0,0,0c0,0,0,0,0,0c0,0,0-0.1,0-0.1
			c0,0,0,0,0,0c0-0.1,0-0.2,0.1-0.2c0-0.1-0.2-0.1-0.2-0.1c0,0.2-0.1,0.3-0.1,0.5c0,0.1-0.1,0.2-0.1,0.3c0,0,0,0,0.1,0.1
			c0,0.1,0,0.2,0,0.3c0,0,0,0,0.1,0.1c0,0.1,0,0.1,0,0.2c-0.1,0.2-0.1,0.4-0.2,0.6c0,0,0,0,0,0c-0.1,0.3-0.2,0.5-0.3,0.8
			c0,0,0.2,0.1,0.2,0.1c0.1-0.2,0.1-0.4,0.2-0.6c0,0.1,0,0.1,0,0.2c-0.1,0.3-0.2,0.6-0.3,0.9c0,0,0,0,0.1,0.1
			c-0.1,0.3-0.2,0.7-0.3,1c0,0,0,0,0.1,0.1c0,0.1,0,0.1,0,0.2c0,0,0.1,0.1,0.2,0.1c-0.1,0.2-0.1,0.4-0.2,0.5c0,0,0.1,0.1,0.1,0.1
			c0,0.2-0.1,0.3-0.1,0.5c0,0.1-0.1,0.2-0.1,0.3c0,0.1,0.2,0.1,0.2,0.1c0,0,0-0.1,0-0.1c0,0.1,0,0.1,0,0.2c-0.1,0.3-0.2,0.7-0.4,1
			c0,0,0,0,0.1,0.1c-0.1,0.2-0.2,0.5-0.3,0.7c0,0,0,0.1,0.1,0.1c0,0.1,0,0.2-0.1,0.3c0,0,0.1,0.1,0.1,0.1c-0.1,0.2-0.2,0.4-0.2,0.5
			c0,0,0.2,0.1,0.2,0.1c0,0,0,0,0,0c0,0,0,0,0,0c0,0.1-0.1,0.1-0.1,0.2c-0.1,0,0,0-0.1,0.2c0,0,0.2,0.1,0.2,0.1c0,0,0,0,0,0
			c0.1,0,0.1,0,0.1,0c0.1-0.1,0.2-0.3,0.3-0.4c0,0,0.1,0,0.1,0c0,0,0.2,0.1,0.2,0.1c0-0.1,0-0.1,0.1-0.2c0,0,0.2,0.1,0.2,0
			c0.1-0.1,0.2-0.2,0.2-0.2c0.1,0,0.2,0.1,0.2,0c0.4-0.6,0.7-1.2,1-1.8c0.1,0,0.1,0,0.1,0c0-0.2,0.1-0.4,0.1-0.5
			c0-0.1,0-0.1,0.1-0.2c0.1,0,0.2,0,0.2,0C40.8,14.6,40.9,14.3,40.9,14.1C40.9,14.1,40.9,14.1,40.9,14.1
			C40.9,14.1,40.9,14.1,40.9,14.1z M39.6,9.5C39.6,9.5,39.6,9.5,39.6,9.5C39.6,9.5,39.6,9.5,39.6,9.5C39.6,9.5,39.6,9.5,39.6,9.5
			C39.6,9.5,39.6,9.5,39.6,9.5z M39.6,12.5c0-0.2,0-0.4,0.1-0.5c0,0,0,0,0-0.1c0,0,0,0,0,0c0,0,0,0,0,0c0-0.1,0-0.1,0-0.2
			c0,0,0,0,0,0c0,0,0-0.1,0-0.1c0,0.2-0.1,0.5-0.1,0.7C39.6,12.4,39.6,12.5,39.6,12.5z M39.2,15c0,0,0,0.1,0,0.1c0,0,0,0,0,0
			C39.2,15.1,39.2,15.1,39.2,15z M40,11.5C40,11.4,40,11.4,40,11.5c0-0.1,0-0.1,0-0.1c0-0.1,0.1-0.1,0.1-0.2
			C40.1,11.3,40,11.4,40,11.5z M39.6,10.8C39.6,10.8,39.6,10.8,39.6,10.8C39.6,10.8,39.6,10.8,39.6,10.8
			C39.6,10.8,39.6,10.8,39.6,10.8C39.6,10.8,39.6,10.7,39.6,10.8c0-0.1,0-0.1,0-0.1C39.7,10.7,39.7,10.7,39.6,10.8z M39.1,12.2
			c0,0,0-0.1,0.1-0.1c0,0.1,0,0.2,0,0.2c-0.1,0.1-0.1,0.3-0.2,0.4C39,12.5,39,12.4,39.1,12.2z M38.6,14.9
			C38.6,14.9,38.6,14.9,38.6,14.9c0.1-0.1,0.1-0.2,0.2-0.3C38.7,14.7,38.6,14.8,38.6,14.9C38.6,14.9,38.6,14.9,38.6,14.9z
			 M40.1,10.1C40.1,10.1,40.1,10.2,40.1,10.1c0,0,0-0.1,0-0.2C40.1,10,40.1,10.1,40.1,10.1C40.1,10.1,40.1,10.1,40.1,10.1z
			 M38.6,16.4C38.6,16.4,38.7,16.4,38.6,16.4c0.1,0,0.1,0,0.1,0C38.7,16.4,38.7,16.4,38.6,16.4C38.7,16.5,38.7,16.5,38.6,16.4
			c0,0.1-0.1,0.3-0.2,0.4C38.5,16.7,38.5,16.6,38.6,16.4z M40.5,12.3c-0.1,0.1-0.1,0.2-0.2,0.3c0-0.1,0-0.1,0-0.2
			c0.1-0.2,0.1-0.3,0.2-0.5C40.5,12.1,40.5,12.2,40.5,12.3z M38.6,13.8C38.6,13.8,38.6,13.8,38.6,13.8
			C38.6,13.8,38.6,13.8,38.6,13.8C38.6,13.8,38.6,13.8,38.6,13.8z M38.5,15.2c-0.1,0.3-0.2,0.5-0.3,0.8c0-0.1,0-0.2,0.1-0.3
			C38.4,15.5,38.4,15.4,38.5,15.2z M38.3,17.2C38.3,17.2,38.3,17.2,38.3,17.2c0.2-0.2,0.3-0.3,0.4-0.5c0,0,0,0,0,0
			c-0.1,0.2-0.3,0.4-0.4,0.6C38.3,17.3,38.3,17.3,38.3,17.2z M39.2,16.9C39.2,16.9,39.2,16.8,39.2,16.9
			C39.2,16.8,39.2,16.8,39.2,16.9C39.2,16.9,39.2,16.9,39.2,16.9C39.2,16.9,39.2,16.9,39.2,16.9z M40.8,13C40.8,13,40.8,13,40.8,13
			c0-0.1,0-0.2,0-0.3c0,0,0,0,0,0C40.9,12.7,40.9,12.9,40.8,13z M40.5,10.9c0,0.2,0,0.3,0,0.5c0,0.1-0.1,0.1-0.1,0.2
			c0,0-0.1,0-0.1,0c0-0.1,0-0.1,0-0.2c0,0,0.1,0,0.1,0C40.5,11.2,40.5,11,40.5,10.9z M38.9,9.9C38.9,9.9,38.9,9.9,38.9,9.9
			C38.9,9.9,38.9,10,38.9,9.9C38.9,10,38.9,9.9,38.9,9.9z"/>
		<g>
			<polygon fill="#FFFFFF" points="38.1,6.1 38.5,7.3 39.8,7.3 38.7,8 39.1,9.2 38.1,8.5 37.1,9.2 37.5,8 36.5,7.3 37.7,7.3 			"/>
			<g>
				<path fill="#231F20" d="M38,6.2c0.1,0.4,0.3,0.8,0.4,1.2c0,0,0,0,0.1,0c0.2,0,1.2-0.1,1.2-0.1c-0.1-0.1-0.8,0.5-1,0.7
					c0,0-0.1,0.1-0.1,0.1c0.1,0.4,0.3,0.8,0.4,1.2c0.1,0,0.1-0.1,0.2-0.1c-0.3-0.2-0.7-0.5-1-0.7c0,0-0.1,0-0.2,0
					c-0.3,0.2-0.7,0.5-1,0.7c0.1,0,0.1,0,0.2,0c0.1-0.4,0.3-0.8,0.4-1.2c0,0,0,0,0,0c-0.3-0.2-0.7-0.5-1-0.7c-0.1,0-0.1,0.1-0.2,0.1
					c0.4,0,0.8,0,1.3,0c0.1,0,0.1,0,0.2-0.1c0.1-0.4,0.3-0.8,0.4-1.2C38.3,6,38,6,38,6.2c-0.1,0.1-0.1,0.3-0.2,0.5
					c0,0.1-0.3,0.7-0.1,0.6c0.1-0.1,0,0-0.1,0c-0.1,0-0.3,0-0.4,0c-0.2,0-0.4,0-0.6,0c0,0-0.2,0.1-0.2,0.1c0.2,0.1,0.9,0.5,1,0.7
					C37.4,8.2,37.1,9,37,9.2c0,0.1,0.1,0,0.2,0c0.2-0.1,0.3-0.2,0.5-0.3c0.1-0.1,0.3-0.2,0.4-0.3c0.1-0.1,0.2-0.1,0.1-0.1
					c-0.1,0,0.4,0.3,0.4,0.4C38.7,9,38.9,9.2,39,9.3c0.1,0,0.2,0,0.2-0.1c-0.1-0.2-0.1-0.4-0.2-0.5C39,8.5,38.8,8,38.8,8
					c0,0,0.4-0.3,0.5-0.3c0.2-0.1,0.3-0.2,0.5-0.4c0,0,0.1-0.1,0-0.1c-0.3,0-1.1,0.1-1.2,0c-0.1-0.1-0.3-0.9-0.4-1.2
					C38.2,6,38,6.1,38,6.2z"/>
			</g>
		</g>
		<path fill="#FAB543" d="M38.5,8.1C38.5,8.1,38.5,8.1,38.5,8.1L38.5,8.1L38.5,8.1c0.3-0.2,0.6-0.4,0.9-0.6c0,0-0.1-0.1-0.1-0.1
			c-0.2,0-0.4,0-0.6,0c0,0,0,0,0,0c0,0,0,0,0,0c-0.1,0-0.1,0-0.2,0c0,0-0.1-0.1-0.1-0.1c0,0,0-0.1,0-0.1c0,0-0.1-0.1-0.1-0.1
			c0-0.1,0-0.2,0-0.2c0.1-0.2,0.1-0.3,0-0.5c0,0-0.1-0.1-0.1-0.1c0,0.1-0.1,0.1-0.1,0.2c0,0,0,0,0-0.1c0,0,0,0,0,0c0,0,0,0,0,0
			c0,0-0.1-0.1-0.1-0.1c0,0,0,0,0,0c0,0,0,0,0,0c0,0.2-0.1,0.4-0.2,0.6c-0.1,0.1-0.2,0.2-0.3,0.4c0,0,0,0,0,0c0,0,0,0,0,0
			c0,0-0.1-0.1-0.1,0c0,0,0,0,0,0.1c-0.2,0.1-0.3,0-0.5,0.1c0,0,0.1,0.1,0.1,0.1c0,0,0.1,0,0.1,0c0,0,0,0,0,0c0,0,0,0.1,0.1,0.1
			c0,0,0,0.1,0,0.1c0,0,0.1,0.1,0.1,0.1c0,0,0-0.1,0.1-0.1c0,0,0,0,0,0c0,0,0,0.1,0,0.1c0,0,0.1,0.1,0.1,0.1c0,0,0,0,0,0
			c0,0,0.1,0.1,0.1,0.1c0,0.1-0.1,0.3-0.1,0.4c0,0,0,0,0,0c0,0,0,0.1,0,0.1c-0.1,0.1-0.2,0.1-0.3,0.2c0,0,0.1,0.1,0.1,0.1
			c0,0,0.1,0,0.1,0c0,0,0,0,0,0c0,0,0.1,0.1,0.1,0.1c0,0,0-0.1,0-0.1c0,0,0,0,0,0c0,0,0-0.1,0-0.1c0,0,0.1-0.1,0.1-0.1c0,0,0,0,0,0
			c0,0,0.1,0,0.1,0c0,0,0,0,0-0.1c0,0,0.1,0,0.1,0c0,0,0,0,0,0c0,0,0.1,0.1,0.1,0.1c0-0.1,0.1-0.1,0.1-0.1c0,0,0.1,0.1,0.1,0.1
			c0,0,0,0,0,0c0,0,0,0,0.1,0c0,0,0.1,0,0.1,0c0,0,0,0.1,0,0.1c0,0,0.1,0.1,0.1,0.1c0,0,0,0,0-0.1c0,0,0.1,0,0.1,0
			c0-0.1,0-0.2-0.1-0.2c0-0.1,0-0.2,0-0.2c0,0-0.1-0.1-0.1-0.1c0,0,0,0,0,0c0,0,0,0,0,0C38.5,8.2,38.5,8.2,38.5,8.1
			C38.5,8.1,38.5,8.1,38.5,8.1C38.5,8.1,38.5,8.1,38.5,8.1C38.5,8.1,38.5,8.1,38.5,8.1z M38.1,8.2C38.1,8.2,38.2,8.2,38.1,8.2
			C38.2,8.2,38.2,8.2,38.1,8.2C38.2,8.2,38.2,8.2,38.1,8.2C38.2,8.2,38.2,8.2,38.1,8.2C38.1,8.2,38.1,8.2,38.1,8.2z M38.2,7.4
			C38.2,7.4,38.2,7.4,38.2,7.4c0,0.1,0,0.1,0,0.2C38.2,7.5,38.2,7.5,38.2,7.4z M37.9,8.1c0,0.1,0,0.1,0,0.2c0,0,0,0,0,0c0,0,0,0,0,0
			C37.8,8.3,37.8,8.2,37.9,8.1z M38.9,7.6C38.9,7.6,38.9,7.6,38.9,7.6C38.9,7.6,38.9,7.6,38.9,7.6c0.1-0.1,0-0.1,0-0.1
			c0.1,0,0.2,0,0.2,0C39.1,7.6,39,7.6,38.9,7.6C38.9,7.7,38.9,7.6,38.9,7.6z M38.2,6.6C38.2,6.6,38.2,6.6,38.2,6.6
			C38.2,6.6,38.2,6.6,38.2,6.6C38.2,6.6,38.2,6.6,38.2,6.6z M38.1,6.7C38.1,6.7,38.1,6.7,38.1,6.7c0,0.1,0,0.2,0,0.2c0,0,0,0,0,0
			c0,0,0,0.1,0,0.1c0,0,0,0,0,0C38,6.9,38,6.8,38.1,6.7z M37.5,7.6C37.5,7.6,37.5,7.6,37.5,7.6C37.5,7.6,37.5,7.6,37.5,7.6
			C37.5,7.6,37.5,7.6,37.5,7.6z M38.6,7.6C38.6,7.6,38.6,7.6,38.6,7.6C38.5,7.6,38.5,7.6,38.6,7.6C38.5,7.6,38.5,7.6,38.6,7.6
			C38.6,7.5,38.6,7.5,38.6,7.6C38.6,7.6,38.6,7.6,38.6,7.6z M37.2,7.5C37.2,7.5,37.2,7.5,37.2,7.5C37.2,7.5,37.2,7.5,37.2,7.5
			C37.3,7.5,37.2,7.5,37.2,7.5z M37,7.6C37,7.6,37.1,7.5,37,7.6C37.1,7.6,37.1,7.6,37,7.6C37.1,7.6,37,7.6,37,7.6z M37.3,7.7
			C37.3,7.7,37.3,7.7,37.3,7.7C37.3,7.7,37.3,7.7,37.3,7.7C37.3,7.7,37.3,7.7,37.3,7.7z M38.1,8.4C38.1,8.4,38.1,8.4,38.1,8.4
			C38.1,8.4,38.1,8.4,38.1,8.4c0-0.1,0-0.1,0-0.1C38.1,8.3,38.1,8.3,38.1,8.4C38.1,8.3,38.2,8.4,38.1,8.4
			C38.2,8.4,38.1,8.4,38.1,8.4z"/>
	</g>
</g>
</svg>
